<svg width="507" height="94" viewBox="0 0 507 94" fill="none" xmlns="http://www.w3.org/2000/svg">
<path d="M0.191406 0.839844C1.19401 0.891927 2.2487 0.989583 3.35547 1.13281C4.46224 1.27604 5.67969 1.47135 7.00781 1.71875C8.20573 1.48438 9.36458 1.29557 10.4844 1.15234C11.6172 1.00911 12.7174 0.904948 13.7852 0.839844L13.8047 1.83594C12.2031 1.9401 11.1159 2.46745 10.543 3.41797C9.97005 4.36849 9.68359 6.43229 9.68359 9.60938C9.68359 9.79167 9.69661 10.1042 9.72266 10.5469C9.7487 10.9896 9.76172 11.3281 9.76172 11.5625C9.76172 11.6667 9.75521 11.7969 9.74219 11.9531C9.72917 12.0964 9.70964 12.3112 9.68359 12.5977V22.0703C9.68359 24.6224 9.95703 26.2044 10.5039 26.8164C11.0508 27.4154 12.1771 27.7148 13.8828 27.7148C17.1901 27.7148 19.4232 27.3828 20.582 26.7188C21.7409 26.0417 22.4831 24.8047 22.8086 23.0078H24.1172C24 23.776 23.8372 24.5378 23.6289 25.293C23.4206 26.0352 23.1732 26.7578 22.8867 27.4609C23.0169 27.7474 23.1146 27.9883 23.1797 28.1836C23.2448 28.3789 23.2773 28.5417 23.2773 28.6719C23.2773 29.1927 22.9648 29.5443 22.3398 29.7266C21.7148 29.9089 20.2305 30 17.8867 30H16.4805C14.4102 30 12.5547 29.9284 10.9141 29.7852C9.27344 29.6419 7.78255 29.4206 6.44141 29.1211C5.23047 29.3815 4.11068 29.5833 3.08203 29.7266C2.05339 29.8698 1.09635 29.9609 0.210938 30V29.0039C1.77344 28.8997 2.82812 28.3984 3.375 27.5C3.92188 26.5885 4.19531 24.2188 4.19531 20.3906V19.6875V18.2422V12.5977C4.19531 12.0117 4.1888 11.4128 4.17578 10.8008C4.16276 10.1888 4.15625 9.86979 4.15625 9.84375C4.15625 6.45833 3.8763 4.3099 3.31641 3.39844C2.76953 2.47396 1.73438 1.95312 0.210938 1.83594L0.191406 0.839844ZM28.0234 21.1914V18.6719C28.0234 16.3932 27.8542 15 27.5156 14.4922C27.1771 13.9714 26.4935 13.7109 25.4648 13.7109V12.793C26.2201 12.6367 26.9753 12.513 27.7305 12.4219C28.4987 12.3177 29.2669 12.2396 30.0352 12.1875C30.4128 11.901 30.8099 11.6341 31.2266 11.3867C31.6432 11.1393 32.112 10.8919 32.6328 10.6445L33.1797 11.0742C33.0885 11.9857 33.0169 13.0469 32.9648 14.2578C32.9258 15.4557 32.9062 17.0378 32.9062 19.0039C32.9062 22.7409 33.1992 25.2018 33.7852 26.3867C34.3711 27.5716 35.3997 28.1641 36.8711 28.1641C38.3034 28.1641 39.4102 27.6172 40.1914 26.5234C40.9857 25.4167 41.3828 23.8542 41.3828 21.8359V18.4766C41.3828 16.1719 41.2135 14.7721 40.875 14.2773C40.5365 13.7695 39.8529 13.5156 38.8242 13.5156V12.6172C39.4102 12.487 40.0482 12.3828 40.7383 12.3047C41.4414 12.2266 42.2943 12.168 43.2969 12.1289C43.7656 11.7773 44.2214 11.4648 44.6641 11.1914C45.1068 10.918 45.5495 10.6836 45.9922 10.4883L46.5 10.8594C46.4089 11.6276 46.3372 12.4544 46.2852 13.3398C46.2461 14.2122 46.2266 15.4297 46.2266 16.9922V21.3281C46.2266 23.9844 46.3633 25.6706 46.6367 26.3867C46.9102 27.0898 47.4115 27.4414 48.1406 27.4414C48.2839 27.4414 48.4401 27.4349 48.6094 27.4219C48.7917 27.3958 48.9935 27.3633 49.2148 27.3242L49.5078 28.2812C48.8047 28.4896 48.0625 28.6589 47.2812 28.7891C46.5 28.9193 45.6797 29.0169 44.8203 29.082C44.4688 29.2904 44.1302 29.5052 43.8047 29.7266C43.4922 29.9479 43.1732 30.1823 42.8477 30.4297L42.0664 30.1172C41.9622 29.7005 41.8841 29.2383 41.832 28.7305C41.7799 28.2227 41.7539 27.6302 41.7539 26.9531V26.2891C41.1549 27.5521 40.2435 28.5482 39.0195 29.2773C37.7956 29.9935 36.3958 30.3516 34.8203 30.3516C32.3203 30.3516 30.5625 29.707 29.5469 28.418C28.5312 27.1159 28.0234 24.707 28.0234 21.1914ZM50.6016 11.0352C51.2786 11.0872 52.0273 11.1719 52.8477 11.2891C53.681 11.3932 54.612 11.5365 55.6406 11.7188C56.5911 11.5234 57.4701 11.3737 58.2773 11.2695C59.0977 11.1523 59.8724 11.0742 60.6016 11.0352V11.9531C60.1719 11.9922 59.8398 12.0964 59.6055 12.2656C59.3711 12.4349 59.2539 12.6693 59.2539 12.9688C59.2539 13.151 59.306 13.3594 59.4102 13.5938C59.5143 13.8151 59.7161 14.1536 60.0156 14.6094L62.3203 18.125L64.5273 15.1562C64.8268 14.7656 65.0677 14.3685 65.25 13.9648C65.4323 13.5482 65.5234 13.2292 65.5234 13.0078C65.5234 12.6953 65.3997 12.4479 65.1523 12.2656C64.918 12.0833 64.5794 11.9792 64.1367 11.9531V11.0352C64.7227 11.1003 65.3281 11.1719 65.9531 11.25C66.5781 11.3281 67.2357 11.4193 67.9258 11.5234C68.5898 11.4062 69.2148 11.3086 69.8008 11.2305C70.3997 11.1393 70.9466 11.0742 71.4414 11.0352V11.9531C70.4779 12.0573 69.5794 12.4023 68.7461 12.9883C67.9258 13.5742 66.8776 14.6875 65.6016 16.3281L63.2578 19.3945L67.7305 25.6055C68.707 26.9596 69.5078 27.8516 70.1328 28.2812C70.7708 28.6979 71.513 28.9518 72.3594 29.043V30C71.5651 29.9609 70.7318 29.8893 69.8594 29.7852C68.987 29.668 68.0625 29.5117 67.0859 29.3164C66.0833 29.5117 65.1654 29.668 64.332 29.7852C63.4987 29.8893 62.7305 29.9609 62.0273 30L62.0078 29.043C62.4766 29.0169 62.8346 28.9323 63.082 28.7891C63.3294 28.6458 63.4531 28.4505 63.4531 28.2031C63.4531 27.9818 63.3945 27.7409 63.2773 27.4805C63.1732 27.207 63.0039 26.901 62.7695 26.5625L59.9766 22.3633L57.8477 25.3125C57.5221 25.7682 57.2617 26.2305 57.0664 26.6992C56.8711 27.168 56.7734 27.5456 56.7734 27.832C56.7734 28.2227 56.9036 28.5156 57.1641 28.7109C57.4375 28.8932 57.8802 29.0039 58.4922 29.043L58.4727 30C57.8867 29.974 57.2552 29.9089 56.5781 29.8047C55.9141 29.7005 55.1654 29.5378 54.332 29.3164C53.4987 29.5117 52.7305 29.668 52.0273 29.7852C51.3372 29.8893 50.6927 29.9609 50.0938 30V29.043C51.2005 28.8867 52.1771 28.5417 53.0234 28.0078C53.8698 27.4609 54.9831 26.3411 56.3633 24.6484L59.1758 21.1133L55.0156 15.3906C54.026 14.0495 53.2253 13.1641 52.6133 12.7344C52.0143 12.2917 51.3438 12.0312 50.6016 11.9531V11.0352ZM75.2109 21.1914V18.6719C75.2109 16.3932 75.0417 15 74.7031 14.4922C74.3646 13.9714 73.681 13.7109 72.6523 13.7109V12.793C73.4076 12.6367 74.1628 12.513 74.918 12.4219C75.6862 12.3177 76.4544 12.2396 77.2227 12.1875C77.6003 11.901 77.9974 11.6341 78.4141 11.3867C78.8307 11.1393 79.2995 10.8919 79.8203 10.6445L80.3672 11.0742C80.276 11.9857 80.2044 13.0469 80.1523 14.2578C80.1133 15.4557 80.0938 17.0378 80.0938 19.0039C80.0938 22.7409 80.3867 25.2018 80.9727 26.3867C81.5586 27.5716 82.5872 28.1641 84.0586 28.1641C85.4909 28.1641 86.5977 27.6172 87.3789 26.5234C88.1732 25.4167 88.5703 23.8542 88.5703 21.8359V18.4766C88.5703 16.1719 88.401 14.7721 88.0625 14.2773C87.724 13.7695 87.0404 13.5156 86.0117 13.5156V12.6172C86.5977 12.487 87.2357 12.3828 87.9258 12.3047C88.6289 12.2266 89.4818 12.168 90.4844 12.1289C90.9531 11.7773 91.4089 11.4648 91.8516 11.1914C92.2943 10.918 92.737 10.6836 93.1797 10.4883L93.6875 10.8594C93.5964 11.6276 93.5247 12.4544 93.4727 13.3398C93.4336 14.2122 93.4141 15.4297 93.4141 16.9922V21.3281C93.4141 23.9844 93.5508 25.6706 93.8242 26.3867C94.0977 27.0898 94.599 27.4414 95.3281 27.4414C95.4714 27.4414 95.6276 27.4349 95.7969 27.4219C95.9792 27.3958 96.181 27.3633 96.4023 27.3242L96.6953 28.2812C95.9922 28.4896 95.25 28.6589 94.4688 28.7891C93.6875 28.9193 92.8672 29.0169 92.0078 29.082C91.6562 29.2904 91.3177 29.5052 90.9922 29.7266C90.6797 29.9479 90.3607 30.1823 90.0352 30.4297L89.2539 30.1172C89.1497 29.7005 89.0716 29.2383 89.0195 28.7305C88.9674 28.2227 88.9414 27.6302 88.9414 26.9531V26.2891C88.3424 27.5521 87.431 28.5482 86.207 29.2773C84.9831 29.9935 83.5833 30.3516 82.0078 30.3516C79.5078 30.3516 77.75 29.707 76.7344 28.418C75.7188 27.1159 75.2109 24.707 75.2109 21.1914ZM101.637 22.0312V19.6484C101.637 16.6406 101.454 14.8307 101.09 14.2188C100.738 13.5938 100.029 13.2812 98.9609 13.2812H98.5508V12.3633C99.3971 12.181 100.25 12.0443 101.109 11.9531C101.969 11.849 102.848 11.7839 103.746 11.7578C104.033 11.4844 104.312 11.2435 104.586 11.0352C104.872 10.8138 105.159 10.6315 105.445 10.4883L106.07 10.8594C105.979 11.7578 105.901 12.6693 105.836 13.5938C105.784 14.5182 105.745 15.4622 105.719 16.4258L106.246 16.5234C106.624 14.7526 107.281 13.3594 108.219 12.3438C109.156 11.3151 110.23 10.8008 111.441 10.8008C112.392 10.8008 113.147 11.0221 113.707 11.4648C114.28 11.8945 114.566 12.474 114.566 13.2031C114.566 13.737 114.391 14.2057 114.039 14.6094C113.701 15.013 113.206 15.332 112.555 15.5664C112.216 15.1497 111.845 14.8372 111.441 14.6289C111.051 14.4206 110.621 14.3164 110.152 14.3164C108.928 14.3164 108.01 14.9023 107.398 16.0742C106.786 17.2331 106.48 18.9714 106.48 21.2891V22.793C106.48 25.5273 106.741 27.2266 107.262 27.8906C107.783 28.5547 108.87 28.9388 110.523 29.043L110.504 30C109.605 29.987 108.622 29.9154 107.555 29.7852C106.487 29.6549 105.328 29.4727 104.078 29.2383C102.88 29.4596 101.839 29.6354 100.953 29.7656C100.068 29.8828 99.2734 29.9609 98.5703 30L98.5508 29.043C99.7747 28.9648 100.595 28.5872 101.012 27.9102C101.428 27.2331 101.637 25.3971 101.637 22.4023V22.0312ZM127.242 31.1133C126.786 29.9284 126.051 28.2422 125.035 26.0547C124.905 25.7422 124.801 25.5078 124.723 25.3516L121.656 18.7695C120.445 16.1263 119.456 14.375 118.688 13.5156C117.919 12.6562 117.027 12.1354 116.012 11.9531V11.0352C116.793 11.1003 117.62 11.1914 118.492 11.3086C119.365 11.4128 120.296 11.5495 121.285 11.7188C122.262 11.5234 123.193 11.3737 124.078 11.2695C124.964 11.1523 125.803 11.0742 126.598 11.0352L126.617 11.9531C126.044 12.0052 125.608 12.1615 125.309 12.4219C125.009 12.6693 124.859 13.0078 124.859 13.4375C124.859 13.9323 125.139 14.974 125.699 16.5625C126.259 18.138 126.988 19.8828 127.887 21.7969L129.684 25.6445L132.164 19.5117C132.672 18.2357 133.036 17.194 133.258 16.3867C133.492 15.5664 133.609 14.8893 133.609 14.3555C133.609 13.5872 133.414 13.0208 133.023 12.6562C132.646 12.2786 132.014 12.0443 131.129 11.9531V11.0547C131.936 11.1068 132.737 11.1849 133.531 11.2891C134.326 11.3802 135.126 11.4974 135.934 11.6406C136.611 11.5104 137.288 11.3932 137.965 11.2891C138.642 11.1849 139.293 11.1003 139.918 11.0352L139.938 11.9531C138.023 12.1224 135.38 16.1523 132.008 24.043C131.487 25.2539 131.09 26.1849 130.816 26.8359L130.641 27.2266C126.396 37.0703 122.828 41.9922 119.938 41.9922C119.247 41.9922 118.701 41.8229 118.297 41.4844C117.893 41.1458 117.691 40.6901 117.691 40.1172C117.691 39.8177 117.75 39.5052 117.867 39.1797C117.984 38.8672 118.167 38.5417 118.414 38.2031C118.727 38.3854 119.033 38.5221 119.332 38.6133C119.645 38.7174 119.951 38.7695 120.25 38.7695C121.617 38.7695 122.828 38.1966 123.883 37.0508C124.951 35.9049 126.07 33.9258 127.242 31.1133ZM153.414 0.839844C154.352 0.891927 155.38 0.989583 156.5 1.13281C157.633 1.26302 158.844 1.43229 160.133 1.64062C161.422 1.43229 162.62 1.26302 163.727 1.13281C164.833 0.989583 165.862 0.898438 166.812 0.859375V1.79688C165.263 1.90104 164.215 2.39583 163.668 3.28125C163.121 4.16667 162.848 6.25651 162.848 9.55078V12.5977V20.9961C162.848 24.3815 163.121 26.5365 163.668 27.4609C164.228 28.3724 165.276 28.8867 166.812 29.0039V29.9805C165.862 29.9414 164.833 29.8568 163.727 29.7266C162.62 29.5833 161.422 29.4076 160.133 29.1992C158.57 29.4466 157.262 29.6354 156.207 29.7656C155.165 29.8828 154.234 29.9609 153.414 30V29.0039C154.964 28.8997 156.012 28.4049 156.559 27.5195C157.105 26.6341 157.379 24.5378 157.379 21.2305V18.2422V9.84375C157.379 6.45833 157.105 4.30339 156.559 3.37891C156.012 2.45443 154.964 1.92708 153.414 1.79688V0.839844ZM172.574 22.0312V18.9258C172.574 16.3477 172.392 14.7656 172.027 14.1797C171.676 13.5807 170.979 13.2812 169.938 13.2812H169.527V12.3633C170.647 12.168 171.63 12.0247 172.477 11.9336C173.336 11.8294 174.143 11.7708 174.898 11.7578C175.172 11.4844 175.439 11.2435 175.699 11.0352C175.973 10.8268 176.253 10.6445 176.539 10.4883L177.223 10.8398C177.145 11.4518 177.079 12.0768 177.027 12.7148C176.988 13.3398 176.962 13.9974 176.949 14.6875L177.223 14.8047C177.861 13.4115 178.759 12.3633 179.918 11.6602C181.077 10.957 182.47 10.6055 184.098 10.6055C186.467 10.6055 188.18 11.3086 189.234 12.7148C190.289 14.1211 190.816 16.4714 190.816 19.7656V22.7539C190.816 25.5404 191.018 27.2656 191.422 27.9297C191.839 28.5938 192.652 28.9648 193.863 29.043L193.844 30C193.089 29.974 192.288 29.9023 191.441 29.7852C190.608 29.668 189.703 29.4987 188.727 29.2773C188.284 29.4336 187.815 29.5703 187.32 29.6875C186.826 29.8047 186.259 29.9089 185.621 30C185.699 29.1536 185.758 28.112 185.797 26.875C185.836 25.638 185.855 23.9583 185.855 21.8359C185.855 18.151 185.562 15.7227 184.977 14.5508C184.404 13.3789 183.388 12.793 181.93 12.793C180.445 12.793 179.326 13.3659 178.57 14.5117C177.828 15.6576 177.457 17.3698 177.457 19.6484V22.7539C177.457 25.5404 177.659 27.2656 178.062 27.9297C178.479 28.5938 179.293 28.9648 180.504 29.043L180.484 30C179.781 29.9609 179.007 29.8893 178.16 29.7852C177.327 29.681 176.279 29.5117 175.016 29.2773C173.857 29.4857 172.828 29.6484 171.93 29.7656C171.044 29.8828 170.237 29.9609 169.508 30L169.488 29.043C170.712 28.9648 171.533 28.5872 171.949 27.9102C172.366 27.2331 172.574 25.3971 172.574 22.4023V22.0312ZM201.422 6.15234H203.355V11.7188L208.18 11.6406V13.5156L203.355 13.4375V22.3633C203.355 24.4596 203.635 25.9635 204.195 26.875C204.768 27.7865 205.699 28.2422 206.988 28.2422C207.548 28.2422 208.089 28.138 208.609 27.9297C209.13 27.7083 209.658 27.3698 210.191 26.9141L210.836 27.7539C210.003 28.6133 209.039 29.2643 207.945 29.707C206.852 30.1367 205.654 30.3516 204.352 30.3516C202.151 30.3516 200.608 29.7526 199.723 28.5547C198.837 27.3568 198.395 24.8893 198.395 21.1523V13.4375H195.582V12.2461C197.262 12.0898 198.57 11.5169 199.508 10.5273C200.458 9.53776 201.096 8.07943 201.422 6.15234ZM217.086 17.0312H223.961C224.404 17.0312 224.697 16.9792 224.84 16.875C224.996 16.7708 225.074 16.556 225.074 16.2305C225.074 15.0586 224.677 14.0299 223.883 13.1445C223.089 12.2461 222.145 11.7969 221.051 11.7969C219.905 11.7969 218.954 12.2526 218.199 13.1641C217.457 14.0755 217.086 15.2083 217.086 16.5625V17.0312ZM229.762 18.3594H218.473C217.952 18.3594 217.587 18.4766 217.379 18.7109C217.184 18.9453 217.086 19.375 217.086 20C217.086 22.2656 217.783 24.1732 219.176 25.7227C220.569 27.2721 222.327 28.0469 224.449 28.0469C225.465 28.0469 226.428 27.8711 227.34 27.5195C228.264 27.1549 229.085 26.6341 229.801 25.957L230.328 26.875C229.43 27.9948 228.219 28.8737 226.695 29.5117C225.172 30.1367 223.486 30.4492 221.637 30.4492C218.681 30.4492 216.337 29.5964 214.605 27.8906C212.874 26.1719 212.008 23.8607 212.008 20.957C212.008 17.9883 212.939 15.4948 214.801 13.4766C216.663 11.4583 218.954 10.4492 221.676 10.4492C224.007 10.4492 225.947 11.1133 227.496 12.4414C229.059 13.7695 229.84 15.3841 229.84 17.2852C229.84 17.5456 229.833 17.7539 229.82 17.9102C229.807 18.0664 229.788 18.2161 229.762 18.3594ZM235.621 22.0312V19.6484C235.621 16.6406 235.439 14.8307 235.074 14.2188C234.723 13.5938 234.013 13.2812 232.945 13.2812H232.535V12.3633C233.382 12.181 234.234 12.0443 235.094 11.9531C235.953 11.849 236.832 11.7839 237.73 11.7578C238.017 11.4844 238.297 11.2435 238.57 11.0352C238.857 10.8138 239.143 10.6315 239.43 10.4883L240.055 10.8594C239.964 11.7578 239.885 12.6693 239.82 13.5938C239.768 14.5182 239.729 15.4622 239.703 16.4258L240.23 16.5234C240.608 14.7526 241.266 13.3594 242.203 12.3438C243.141 11.3151 244.215 10.8008 245.426 10.8008C246.376 10.8008 247.132 11.0221 247.691 11.4648C248.264 11.8945 248.551 12.474 248.551 13.2031C248.551 13.737 248.375 14.2057 248.023 14.6094C247.685 15.013 247.19 15.332 246.539 15.5664C246.201 15.1497 245.829 14.8372 245.426 14.6289C245.035 14.4206 244.605 14.3164 244.137 14.3164C242.913 14.3164 241.995 14.9023 241.383 16.0742C240.771 17.2331 240.465 18.9714 240.465 21.2891V22.793C240.465 25.5273 240.725 27.2266 241.246 27.8906C241.767 28.5547 242.854 28.9388 244.508 29.043L244.488 30C243.59 29.987 242.607 29.9154 241.539 29.7852C240.471 29.6549 239.312 29.4727 238.062 29.2383C236.865 29.4596 235.823 29.6354 234.938 29.7656C234.052 29.8828 233.258 29.9609 232.555 30L232.535 29.043C233.759 28.9648 234.579 28.5872 234.996 27.9102C235.413 27.2331 235.621 25.3971 235.621 22.4023V22.0312ZM253.121 19.6484V18.9258C253.121 16.3477 252.939 14.7656 252.574 14.1797C252.223 13.5807 251.526 13.2812 250.484 13.2812H250.094V12.3633C251.122 12.194 252.118 12.0638 253.082 11.9727C254.046 11.8685 254.977 11.7969 255.875 11.7578C256.253 11.4323 256.585 11.1523 256.871 10.918C257.171 10.6836 257.431 10.4948 257.652 10.3516L258.336 10.7227C258.219 11.6602 258.134 12.6628 258.082 13.7305C258.03 14.7982 258.004 16.1133 258.004 17.6758V22.7539C258.004 25.5404 258.212 27.2656 258.629 27.9297C259.046 28.5938 259.853 28.9648 261.051 29.043L261.031 30C260.419 29.987 259.697 29.9284 258.863 29.8242C258.043 29.707 256.93 29.5117 255.523 29.2383C254.339 29.4727 253.31 29.6484 252.438 29.7656C251.578 29.8828 250.797 29.9609 250.094 30V29.043C251.292 28.9648 252.092 28.5938 252.496 27.9297C252.913 27.2656 253.121 25.5404 253.121 22.7539V22.0312V19.6484ZM252.203 4.31641C252.203 3.49609 252.477 2.8125 253.023 2.26562C253.57 1.71875 254.26 1.44531 255.094 1.44531C255.94 1.44531 256.637 1.71875 257.184 2.26562C257.73 2.79948 258.004 3.48307 258.004 4.31641C258.004 5.14974 257.724 5.83984 257.164 6.38672C256.604 6.93359 255.914 7.20703 255.094 7.20703C254.273 7.20703 253.583 6.92708 253.023 6.36719C252.477 5.80729 252.203 5.1237 252.203 4.31641ZM284.801 20.3906C284.801 23.3203 283.798 25.7292 281.793 27.6172C279.801 29.5052 277.229 30.4492 274.078 30.4492C270.927 30.4492 268.349 29.5052 266.344 27.6172C264.339 25.7292 263.336 23.3203 263.336 20.3906C263.336 17.474 264.339 15.0716 266.344 13.1836C268.349 11.2956 270.927 10.3516 274.078 10.3516C277.229 10.3516 279.801 11.2956 281.793 13.1836C283.798 15.0716 284.801 17.474 284.801 20.3906ZM274.078 11.6797C272.451 11.6797 271.174 12.4219 270.25 13.9062C269.339 15.3906 268.883 17.474 268.883 20.1562C268.883 23.112 269.319 25.3516 270.191 26.875C271.077 28.3984 272.372 29.1602 274.078 29.1602C275.758 29.1602 277.047 28.4049 277.945 26.8945C278.844 25.3841 279.293 23.2161 279.293 20.3906C279.293 17.5911 278.844 15.4427 277.945 13.9453C277.047 12.4349 275.758 11.6797 274.078 11.6797ZM290.387 22.0312V19.6484C290.387 16.6406 290.204 14.8307 289.84 14.2188C289.488 13.5938 288.779 13.2812 287.711 13.2812H287.301V12.3633C288.147 12.181 289 12.0443 289.859 11.9531C290.719 11.849 291.598 11.7839 292.496 11.7578C292.783 11.4844 293.062 11.2435 293.336 11.0352C293.622 10.8138 293.909 10.6315 294.195 10.4883L294.82 10.8594C294.729 11.7578 294.651 12.6693 294.586 13.5938C294.534 14.5182 294.495 15.4622 294.469 16.4258L294.996 16.5234C295.374 14.7526 296.031 13.3594 296.969 12.3438C297.906 11.3151 298.98 10.8008 300.191 10.8008C301.142 10.8008 301.897 11.0221 302.457 11.4648C303.03 11.8945 303.316 12.474 303.316 13.2031C303.316 13.737 303.141 14.2057 302.789 14.6094C302.451 15.013 301.956 15.332 301.305 15.5664C300.966 15.1497 300.595 14.8372 300.191 14.6289C299.801 14.4206 299.371 14.3164 298.902 14.3164C297.678 14.3164 296.76 14.9023 296.148 16.0742C295.536 17.2331 295.23 18.9714 295.23 21.2891V22.793C295.23 25.5273 295.491 27.2266 296.012 27.8906C296.533 28.5547 297.62 28.9388 299.273 29.043L299.254 30C298.355 29.987 297.372 29.9154 296.305 29.7852C295.237 29.6549 294.078 29.4727 292.828 29.2383C291.63 29.4596 290.589 29.6354 289.703 29.7656C288.818 29.8828 288.023 29.9609 287.32 30L287.301 29.043C288.525 28.9648 289.345 28.5872 289.762 27.9102C290.178 27.2331 290.387 25.3971 290.387 22.4023V22.0312ZM323.785 29.1992C322.561 29.4076 321.402 29.5833 320.309 29.7266C319.215 29.8568 318.173 29.9479 317.184 30V29.0039C318.733 28.9128 319.781 28.431 320.328 27.5586C320.875 26.6732 321.148 24.5638 321.148 21.2305V18.2422V9.55078C321.148 6.25651 320.875 4.16667 320.328 3.28125C319.781 2.39583 318.733 1.90104 317.184 1.79688L317.203 0.839844C318.167 0.878906 319.182 0.963542 320.25 1.09375C321.331 1.22396 322.509 1.40625 323.785 1.64062C325.283 1.32812 326.715 1.10026 328.082 0.957031C329.449 0.800781 330.751 0.722656 331.988 0.722656C337.431 0.722656 341.708 2.04427 344.82 4.6875C347.945 7.33073 349.508 10.944 349.508 15.5273C349.508 20.0586 347.965 23.6458 344.879 26.2891C341.793 28.9193 337.561 30.2344 332.184 30.2344C330.986 30.2344 329.768 30.1628 328.531 30.0195C327.294 29.8763 325.712 29.6029 323.785 29.1992ZM326.637 18.3203C326.637 21.8099 326.663 24.056 326.715 25.0586C326.767 26.0612 326.858 26.7318 326.988 27.0703C327.223 27.6823 327.711 28.125 328.453 28.3984C329.208 28.6719 330.309 28.8086 331.754 28.8086C335.348 28.8086 338.154 27.6888 340.172 25.4492C342.19 23.2096 343.199 20.0846 343.199 16.0742C343.199 11.6341 342.099 8.20964 339.898 5.80078C337.698 3.37891 334.566 2.16797 330.504 2.16797C329.762 2.16797 329.098 2.19401 328.512 2.24609C327.939 2.29818 327.405 2.3763 326.91 2.48047C326.819 3.6263 326.747 5.02604 326.695 6.67969C326.656 8.32031 326.637 10.2669 326.637 12.5195V18.3203ZM357.711 17.0312H364.586C365.029 17.0312 365.322 16.9792 365.465 16.875C365.621 16.7708 365.699 16.556 365.699 16.2305C365.699 15.0586 365.302 14.0299 364.508 13.1445C363.714 12.2461 362.77 11.7969 361.676 11.7969C360.53 11.7969 359.579 12.2526 358.824 13.1641C358.082 14.0755 357.711 15.2083 357.711 16.5625V17.0312ZM370.387 18.3594H359.098C358.577 18.3594 358.212 18.4766 358.004 18.7109C357.809 18.9453 357.711 19.375 357.711 20C357.711 22.2656 358.408 24.1732 359.801 25.7227C361.194 27.2721 362.952 28.0469 365.074 28.0469C366.09 28.0469 367.053 27.8711 367.965 27.5195C368.889 27.1549 369.71 26.6341 370.426 25.957L370.953 26.875C370.055 27.9948 368.844 28.8737 367.32 29.5117C365.797 30.1367 364.111 30.4492 362.262 30.4492C359.306 30.4492 356.962 29.5964 355.23 27.8906C353.499 26.1719 352.633 23.8607 352.633 20.957C352.633 17.9883 353.564 15.4948 355.426 13.4766C357.288 11.4583 359.579 10.4492 362.301 10.4492C364.632 10.4492 366.572 11.1133 368.121 12.4414C369.684 13.7695 370.465 15.3841 370.465 17.2852C370.465 17.5456 370.458 17.7539 370.445 17.9102C370.432 18.0664 370.413 18.2161 370.387 18.3594ZM374.215 23.4375H375.445C375.641 25.1562 376.22 26.5169 377.184 27.5195C378.16 28.5091 379.384 29.0039 380.855 29.0039C381.858 29.0039 382.672 28.737 383.297 28.2031C383.935 27.6562 384.254 26.9466 384.254 26.0742C384.254 25.2539 383.948 24.5378 383.336 23.9258C382.737 23.3138 381.656 22.6693 380.094 21.9922C377.815 21.0156 376.318 20.1237 375.602 19.3164C374.885 18.5091 374.527 17.4805 374.527 16.2305C374.527 14.4857 375.224 13.0924 376.617 12.0508C378.01 11.0091 379.885 10.4883 382.242 10.4883C383.792 10.4883 385.061 10.6836 386.051 11.0742C387.04 11.4518 387.535 11.9336 387.535 12.5195C387.522 12.6628 387.483 12.819 387.418 12.9883C387.366 13.1576 387.268 13.3789 387.125 13.6523C387.255 14.1992 387.353 14.7266 387.418 15.2344C387.496 15.7292 387.535 16.1979 387.535 16.6406H386.324C386.09 15.1172 385.589 13.9388 384.82 13.1055C384.052 12.2591 383.089 11.8359 381.93 11.8359C381.018 11.8359 380.276 12.0898 379.703 12.5977C379.13 13.0924 378.844 13.7305 378.844 14.5117C378.844 15.2148 379.078 15.8203 379.547 16.3281C380.029 16.8359 380.862 17.3503 382.047 17.8711C384.964 19.1732 386.793 20.2474 387.535 21.0938C388.277 21.9401 388.648 23.0013 388.648 24.2773C388.648 26.0872 387.9 27.5521 386.402 28.6719C384.918 29.7917 382.971 30.3516 380.562 30.3516C378.701 30.3516 377.21 30.1497 376.09 29.7461C374.97 29.3424 374.41 28.8151 374.41 28.1641C374.41 28.0208 374.436 27.8581 374.488 27.6758C374.54 27.4935 374.618 27.2786 374.723 27.0312C374.553 26.3542 374.423 25.7227 374.332 25.1367C374.254 24.5378 374.215 23.9714 374.215 23.4375ZM395.152 19.6484V18.9258C395.152 16.3477 394.97 14.7656 394.605 14.1797C394.254 13.5807 393.557 13.2812 392.516 13.2812H392.125V12.3633C393.154 12.194 394.15 12.0638 395.113 11.9727C396.077 11.8685 397.008 11.7969 397.906 11.7578C398.284 11.4323 398.616 11.1523 398.902 10.918C399.202 10.6836 399.462 10.4948 399.684 10.3516L400.367 10.7227C400.25 11.6602 400.165 12.6628 400.113 13.7305C400.061 14.7982 400.035 16.1133 400.035 17.6758V22.7539C400.035 25.5404 400.243 27.2656 400.66 27.9297C401.077 28.5938 401.884 28.9648 403.082 29.043L403.062 30C402.451 29.987 401.728 29.9284 400.895 29.8242C400.074 29.707 398.961 29.5117 397.555 29.2383C396.37 29.4727 395.341 29.6484 394.469 29.7656C393.609 29.8828 392.828 29.9609 392.125 30V29.043C393.323 28.9648 394.124 28.5938 394.527 27.9297C394.944 27.2656 395.152 25.5404 395.152 22.7539V22.0312V19.6484ZM394.234 4.31641C394.234 3.49609 394.508 2.8125 395.055 2.26562C395.602 1.71875 396.292 1.44531 397.125 1.44531C397.971 1.44531 398.668 1.71875 399.215 2.26562C399.762 2.79948 400.035 3.48307 400.035 4.31641C400.035 5.14974 399.755 5.83984 399.195 6.38672C398.635 6.93359 397.945 7.20703 397.125 7.20703C396.305 7.20703 395.615 6.92708 395.055 6.36719C394.508 5.80729 394.234 5.1237 394.234 4.31641ZM421.168 36.3672C421.168 35.1302 420.602 34.1667 419.469 33.4766C418.349 32.7865 416.793 32.4414 414.801 32.4414C412.861 32.4414 411.337 32.8125 410.23 33.5547C409.137 34.2969 408.59 35.3255 408.59 36.6406C408.59 37.8906 409.13 38.8997 410.211 39.668C411.292 40.4492 412.73 40.8398 414.527 40.8398C416.507 40.8398 418.108 40.4232 419.332 39.5898C420.556 38.7565 421.168 37.6823 421.168 36.3672ZM414.43 11.7578C413.336 11.7578 412.483 12.2266 411.871 13.1641C411.259 14.0885 410.953 15.3906 410.953 17.0703C410.953 19.0625 411.279 20.625 411.93 21.7578C412.594 22.8776 413.499 23.4375 414.645 23.4375C415.725 23.4375 416.565 22.9818 417.164 22.0703C417.776 21.1458 418.082 19.8568 418.082 18.2031C418.082 16.1979 417.757 14.6224 417.105 13.4766C416.454 12.3307 415.562 11.7578 414.43 11.7578ZM425.484 10.957L425.074 12.7734C424.983 13.151 424.814 13.4115 424.566 13.5547C424.319 13.6979 423.863 13.7695 423.199 13.7695C422.874 13.7695 422.587 13.763 422.34 13.75C422.092 13.737 421.832 13.7109 421.559 13.6719C421.949 14.2448 422.236 14.8633 422.418 15.5273C422.613 16.1784 422.711 16.8685 422.711 17.5977C422.711 19.4987 422.053 21.0807 420.738 22.3438C419.423 23.6068 417.62 24.375 415.328 24.6484C415.276 24.6484 415.211 24.6549 415.133 24.668C412.802 24.9414 411.637 25.5859 411.637 26.6016C411.637 27.5911 413.329 28.3138 416.715 28.7695C416.897 28.7956 417.047 28.8216 417.164 28.8477C420.289 29.2773 422.418 29.9414 423.551 30.8398C424.697 31.7383 425.27 33.0859 425.27 34.8828C425.27 36.9922 424.228 38.737 422.145 40.1172C420.074 41.5104 417.411 42.207 414.156 42.207C411.383 42.207 409.182 41.6862 407.555 40.6445C405.927 39.6159 405.113 38.2292 405.113 36.4844C405.113 35.0911 405.758 33.9518 407.047 33.0664C408.349 32.181 410.159 31.6536 412.477 31.4844V31.2891C410.966 31.1068 409.814 30.7292 409.02 30.1562C408.238 29.5964 407.848 28.8672 407.848 27.9688C407.848 27.1354 408.193 26.4128 408.883 25.8008C409.586 25.1758 410.556 24.7331 411.793 24.4727C409.97 24.0039 408.583 23.2031 407.633 22.0703C406.682 20.9245 406.207 19.4987 406.207 17.793C406.207 15.6315 406.956 13.8737 408.453 12.5195C409.964 11.1654 411.93 10.4883 414.352 10.4883C415.38 10.4883 416.637 10.6836 418.121 11.0742C419.618 11.4518 420.615 11.6406 421.109 11.6406C421.565 11.6406 422.099 11.5951 422.711 11.5039C423.323 11.4128 424.247 11.2305 425.484 10.957ZM429.879 22.0312V18.9258C429.879 16.3477 429.697 14.7656 429.332 14.1797C428.98 13.5807 428.284 13.2812 427.242 13.2812H426.832V12.3633C427.952 12.168 428.935 12.0247 429.781 11.9336C430.641 11.8294 431.448 11.7708 432.203 11.7578C432.477 11.4844 432.743 11.2435 433.004 11.0352C433.277 10.8268 433.557 10.6445 433.844 10.4883L434.527 10.8398C434.449 11.4518 434.384 12.0768 434.332 12.7148C434.293 13.3398 434.267 13.9974 434.254 14.6875L434.527 14.8047C435.165 13.4115 436.064 12.3633 437.223 11.6602C438.382 10.957 439.775 10.6055 441.402 10.6055C443.772 10.6055 445.484 11.3086 446.539 12.7148C447.594 14.1211 448.121 16.4714 448.121 19.7656V22.7539C448.121 25.5404 448.323 27.2656 448.727 27.9297C449.143 28.5938 449.957 28.9648 451.168 29.043L451.148 30C450.393 29.974 449.592 29.9023 448.746 29.7852C447.913 29.668 447.008 29.4987 446.031 29.2773C445.589 29.4336 445.12 29.5703 444.625 29.6875C444.13 29.8047 443.564 29.9089 442.926 30C443.004 29.1536 443.062 28.112 443.102 26.875C443.141 25.638 443.16 23.9583 443.16 21.8359C443.16 18.151 442.867 15.7227 442.281 14.5508C441.708 13.3789 440.693 12.793 439.234 12.793C437.75 12.793 436.63 13.3659 435.875 14.5117C435.133 15.6576 434.762 17.3698 434.762 19.6484V22.7539C434.762 25.5404 434.964 27.2656 435.367 27.9297C435.784 28.5938 436.598 28.9648 437.809 29.043L437.789 30C437.086 29.9609 436.311 29.8893 435.465 29.7852C434.632 29.681 433.583 29.5117 432.32 29.2773C431.161 29.4857 430.133 29.6484 429.234 29.7656C428.349 29.8828 427.542 29.9609 426.812 30L426.793 29.043C428.017 28.9648 428.837 28.5872 429.254 27.9102C429.671 27.2331 429.879 25.3971 429.879 22.4023V22.0312ZM458.258 17.0312H465.133C465.576 17.0312 465.868 16.9792 466.012 16.875C466.168 16.7708 466.246 16.556 466.246 16.2305C466.246 15.0586 465.849 14.0299 465.055 13.1445C464.26 12.2461 463.316 11.7969 462.223 11.7969C461.077 11.7969 460.126 12.2526 459.371 13.1641C458.629 14.0755 458.258 15.2083 458.258 16.5625V17.0312ZM470.934 18.3594H459.645C459.124 18.3594 458.759 18.4766 458.551 18.7109C458.355 18.9453 458.258 19.375 458.258 20C458.258 22.2656 458.954 24.1732 460.348 25.7227C461.741 27.2721 463.499 28.0469 465.621 28.0469C466.637 28.0469 467.6 27.8711 468.512 27.5195C469.436 27.1549 470.257 26.6341 470.973 25.957L471.5 26.875C470.602 27.9948 469.391 28.8737 467.867 29.5117C466.344 30.1367 464.658 30.4492 462.809 30.4492C459.853 30.4492 457.509 29.5964 455.777 27.8906C454.046 26.1719 453.18 23.8607 453.18 20.957C453.18 17.9883 454.111 15.4948 455.973 13.4766C457.835 11.4583 460.126 10.4492 462.848 10.4492C465.178 10.4492 467.118 11.1133 468.668 12.4414C470.23 13.7695 471.012 15.3841 471.012 17.2852C471.012 17.5456 471.005 17.7539 470.992 17.9102C470.979 18.0664 470.96 18.2161 470.934 18.3594ZM476.793 22.0312V19.6484C476.793 16.6406 476.611 14.8307 476.246 14.2188C475.895 13.5938 475.185 13.2812 474.117 13.2812H473.707V12.3633C474.553 12.181 475.406 12.0443 476.266 11.9531C477.125 11.849 478.004 11.7839 478.902 11.7578C479.189 11.4844 479.469 11.2435 479.742 11.0352C480.029 10.8138 480.315 10.6315 480.602 10.4883L481.227 10.8594C481.135 11.7578 481.057 12.6693 480.992 13.5938C480.94 14.5182 480.901 15.4622 480.875 16.4258L481.402 16.5234C481.78 14.7526 482.438 13.3594 483.375 12.3438C484.312 11.3151 485.387 10.8008 486.598 10.8008C487.548 10.8008 488.303 11.0221 488.863 11.4648C489.436 11.8945 489.723 12.474 489.723 13.2031C489.723 13.737 489.547 14.2057 489.195 14.6094C488.857 15.013 488.362 15.332 487.711 15.5664C487.372 15.1497 487.001 14.8372 486.598 14.6289C486.207 14.4206 485.777 14.3164 485.309 14.3164C484.085 14.3164 483.167 14.9023 482.555 16.0742C481.943 17.2331 481.637 18.9714 481.637 21.2891V22.793C481.637 25.5273 481.897 27.2266 482.418 27.8906C482.939 28.5547 484.026 28.9388 485.68 29.043L485.66 30C484.762 29.987 483.779 29.9154 482.711 29.7852C481.643 29.6549 480.484 29.4727 479.234 29.2383C478.036 29.4596 476.995 29.6354 476.109 29.7656C475.224 29.8828 474.43 29.9609 473.727 30L473.707 29.043C474.931 28.9648 475.751 28.5872 476.168 27.9102C476.585 27.2331 476.793 25.3971 476.793 22.4023V22.0312ZM491.988 23.4375H493.219C493.414 25.1562 493.993 26.5169 494.957 27.5195C495.934 28.5091 497.158 29.0039 498.629 29.0039C499.632 29.0039 500.445 28.737 501.07 28.2031C501.708 27.6562 502.027 26.9466 502.027 26.0742C502.027 25.2539 501.721 24.5378 501.109 23.9258C500.51 23.3138 499.43 22.6693 497.867 21.9922C495.589 21.0156 494.091 20.1237 493.375 19.3164C492.659 18.5091 492.301 17.4805 492.301 16.2305C492.301 14.4857 492.997 13.0924 494.391 12.0508C495.784 11.0091 497.659 10.4883 500.016 10.4883C501.565 10.4883 502.835 10.6836 503.824 11.0742C504.814 11.4518 505.309 11.9336 505.309 12.5195C505.296 12.6628 505.257 12.819 505.191 12.9883C505.139 13.1576 505.042 13.3789 504.898 13.6523C505.029 14.1992 505.126 14.7266 505.191 15.2344C505.27 15.7292 505.309 16.1979 505.309 16.6406H504.098C503.863 15.1172 503.362 13.9388 502.594 13.1055C501.826 12.2591 500.862 11.8359 499.703 11.8359C498.792 11.8359 498.049 12.0898 497.477 12.5977C496.904 13.0924 496.617 13.7305 496.617 14.5117C496.617 15.2148 496.852 15.8203 497.32 16.3281C497.802 16.8359 498.635 17.3503 499.82 17.8711C502.737 19.1732 504.566 20.2474 505.309 21.0938C506.051 21.9401 506.422 23.0013 506.422 24.2773C506.422 26.0872 505.673 27.5521 504.176 28.6719C502.691 29.7917 500.745 30.3516 498.336 30.3516C496.474 30.3516 494.983 30.1497 493.863 29.7461C492.743 29.3424 492.184 28.8151 492.184 28.1641C492.184 28.0208 492.21 27.8581 492.262 27.6758C492.314 27.4935 492.392 27.2786 492.496 27.0312C492.327 26.3542 492.197 25.7227 492.105 25.1367C492.027 24.5378 491.988 23.9714 491.988 23.4375ZM3.47266 70.6484V69.9258C3.47266 67.3477 3.29036 65.7656 2.92578 65.1797C2.57422 64.5807 1.8776 64.2812 0.835938 64.2812H0.445312V63.3633C1.47396 63.194 2.47005 63.0638 3.43359 62.9727C4.39714 62.8685 5.32812 62.7969 6.22656 62.7578C6.60417 62.4323 6.9362 62.1523 7.22266 61.918C7.52214 61.6836 7.78255 61.4948 8.00391 61.3516L8.6875 61.7227C8.57031 62.6602 8.48568 63.6628 8.43359 64.7305C8.38151 65.7982 8.35547 67.1133 8.35547 68.6758V73.7539C8.35547 76.5404 8.5638 78.2656 8.98047 78.9297C9.39714 79.5938 10.2044 79.9648 11.4023 80.043L11.3828 81C10.7708 80.987 10.0482 80.9284 9.21484 80.8242C8.39453 80.707 7.28125 80.5117 5.875 80.2383C4.6901 80.4727 3.66146 80.6484 2.78906 80.7656C1.92969 80.8828 1.14844 80.9609 0.445312 81V80.043C1.64323 79.9648 2.44401 79.5938 2.84766 78.9297C3.26432 78.2656 3.47266 76.5404 3.47266 73.7539V73.0312V70.6484ZM2.55469 55.3164C2.55469 54.4961 2.82812 53.8125 3.375 53.2656C3.92188 52.7188 4.61198 52.4453 5.44531 52.4453C6.29167 52.4453 6.98828 52.7188 7.53516 53.2656C8.08203 53.7995 8.35547 54.4831 8.35547 55.3164C8.35547 56.1497 8.07552 56.8398 7.51562 57.3867C6.95573 57.9336 6.26562 58.207 5.44531 58.207C4.625 58.207 3.9349 57.9271 3.375 57.3672C2.82812 56.8073 2.55469 56.1237 2.55469 55.3164ZM16.5586 73.0312V69.9258C16.5586 67.3477 16.3763 65.7656 16.0117 65.1797C15.6602 64.5807 14.9635 64.2812 13.9219 64.2812H13.5117V63.3633C14.6315 63.168 15.6146 63.0247 16.4609 62.9336C17.3203 62.8294 18.1276 62.7708 18.8828 62.7578C19.1562 62.4844 19.4232 62.2435 19.6836 62.0352C19.957 61.8268 20.237 61.6445 20.5234 61.4883L21.207 61.8398C21.1289 62.4518 21.0638 63.0768 21.0117 63.7148C20.9727 64.3398 20.9466 64.9974 20.9336 65.6875L21.207 65.8047C21.8451 64.4115 22.7435 63.3633 23.9023 62.6602C25.0612 61.957 26.4544 61.6055 28.082 61.6055C30.4518 61.6055 32.1641 62.3086 33.2188 63.7148C34.2734 65.1211 34.8008 67.4714 34.8008 70.7656V73.7539C34.8008 76.5404 35.0026 78.2656 35.4062 78.9297C35.8229 79.5938 36.6367 79.9648 37.8477 80.043L37.8281 81C37.0729 80.974 36.2721 80.9023 35.4258 80.7852C34.5924 80.668 33.6875 80.4987 32.7109 80.2773C32.2682 80.4336 31.7995 80.5703 31.3047 80.6875C30.8099 80.8047 30.2435 80.9089 29.6055 81C29.6836 80.1536 29.7422 79.112 29.7812 77.875C29.8203 76.638 29.8398 74.9583 29.8398 72.8359C29.8398 69.151 29.5469 66.7227 28.9609 65.5508C28.388 64.3789 27.3724 63.793 25.9141 63.793C24.4297 63.793 23.3099 64.3659 22.5547 65.5117C21.8125 66.6576 21.4414 68.3698 21.4414 70.6484V73.7539C21.4414 76.5404 21.6432 78.2656 22.0469 78.9297C22.4635 79.5938 23.2773 79.9648 24.4883 80.043L24.4688 81C23.7656 80.9609 22.9909 80.8893 22.1445 80.7852C21.3112 80.681 20.263 80.5117 19 80.2773C17.8411 80.4857 16.8125 80.6484 15.9141 80.7656C15.0286 80.8828 14.2214 80.9609 13.4922 81L13.4727 80.043C14.6966 79.9648 15.5169 79.5872 15.9336 78.9102C16.3503 78.2331 16.5586 76.3971 16.5586 73.4023V73.0312ZM61.5977 66.0781V71.918C61.5977 75.4727 61.8776 77.6471 62.4375 78.4414C63.0104 79.2357 64.1042 79.6328 65.7188 79.6328C67.5547 79.6328 69.0065 79.0534 70.0742 77.8945C71.1419 76.7357 71.6758 75.1602 71.6758 73.168C71.6758 70.7721 70.9596 68.9883 69.5273 67.8164C68.1081 66.6315 65.9531 66.0391 63.0625 66.0391C62.8542 66.0391 62.6263 66.0456 62.3789 66.0586C62.1315 66.0586 61.8711 66.0651 61.5977 66.0781ZM61.6367 64.5938C61.8711 64.6068 62.1185 64.6198 62.3789 64.6328C62.6523 64.6328 63.043 64.6328 63.5508 64.6328C65.7122 64.6328 67.3073 64.1641 68.3359 63.2266C69.3646 62.2891 69.8789 60.8372 69.8789 58.8711C69.8789 57.1133 69.332 55.707 68.2383 54.6523C67.1576 53.5977 65.6862 53.0703 63.8242 53.0703C63.3685 53.0703 62.9844 53.0898 62.6719 53.1289C62.3724 53.1549 62.0664 53.207 61.7539 53.2852C61.7148 53.7279 61.6823 54.2161 61.6562 54.75C61.6432 55.2708 61.6367 56.0716 61.6367 57.1523V59.125V64.5938ZM56.1875 69.2422V60.8828C56.1875 57.4844 55.9141 55.3229 55.3672 54.3984C54.8203 53.4609 53.7721 52.9271 52.2227 52.7969L52.2422 51.8398C53.0495 51.8789 53.9349 51.957 54.8984 52.0742C55.875 52.1914 57.0794 52.3802 58.5117 52.6406C59.944 52.3021 61.3047 52.0547 62.5938 51.8984C63.8958 51.7292 65.1458 51.6445 66.3438 51.6445C69.2995 51.6445 71.5716 52.2174 73.1602 53.3633C74.7487 54.4961 75.543 56.1107 75.543 58.207C75.543 59.8867 74.9635 61.3125 73.8047 62.4844C72.6458 63.6562 70.9987 64.4701 68.8633 64.9258V65.1992C71.7669 65.4596 73.987 66.2539 75.5234 67.582C77.0599 68.8971 77.8281 70.6745 77.8281 72.9141C77.8281 75.5182 76.8385 77.543 74.8594 78.9883C72.8802 80.4336 70.1003 81.1562 66.5195 81.1562C65.2435 81.1562 63.9479 81.0781 62.6328 80.9219C61.3307 80.7656 60.0091 80.5247 58.668 80.1992C57.1706 80.4596 55.9271 80.6484 54.9375 80.7656C53.9609 80.8828 53.0625 80.9609 52.2422 81L52.2227 80.0039C53.7721 79.9128 54.8203 79.431 55.3672 78.5586C55.9141 77.6732 56.1875 75.5638 56.1875 72.2305V69.2422ZM93.4141 71.2344C92.8672 71.4427 92.099 71.7031 91.1094 72.0156C88.0885 72.9922 86.5781 74.3333 86.5781 76.0391C86.5781 76.9896 86.832 77.7383 87.3398 78.2852C87.8477 78.819 88.5508 79.0859 89.4492 79.0859C90.6992 79.0859 91.6693 78.7018 92.3594 77.9336C93.0625 77.1654 93.4141 76.0781 93.4141 74.6719V71.2344ZM98.2578 70.0039V73.6758C98.2578 75.6419 98.3945 76.9635 98.668 77.6406C98.9414 78.3047 99.4167 78.6367 100.094 78.6367C100.25 78.6367 100.419 78.6042 100.602 78.5391C100.797 78.474 101.07 78.3503 101.422 78.168L101.891 78.9688C101.174 79.6849 100.413 80.2448 99.6055 80.6484C98.8112 81.0391 98.056 81.2344 97.3398 81.2344C96.3503 81.2344 95.556 80.9805 94.957 80.4727C94.3711 79.9648 93.9805 79.2096 93.7852 78.207C93.082 79.1836 92.1185 79.9583 90.8945 80.5312C89.6836 81.1042 88.4076 81.3906 87.0664 81.3906C85.3867 81.3906 84.0781 81 83.1406 80.2188C82.2031 79.4245 81.7344 78.3242 81.7344 76.918C81.7344 74.3789 84.1888 72.4648 89.0977 71.1758C89.5794 71.0456 89.9375 70.9479 90.1719 70.8828C91.5781 70.4922 92.4766 70.0755 92.8672 69.6328C93.2578 69.1771 93.4531 68.2721 93.4531 66.918C93.4531 65.5247 93.2057 64.4831 92.7109 63.793C92.2161 63.1029 91.4674 62.7578 90.4648 62.7578C89.5404 62.7578 88.7982 63.0508 88.2383 63.6367C87.6914 64.2096 87.418 64.9844 87.418 65.9609C87.418 66.3125 87.4505 66.638 87.5156 66.9375C87.5938 67.224 87.7109 67.4974 87.8672 67.7578C87.4635 68.0052 87.0729 68.194 86.6953 68.3242C86.3177 68.4544 85.9596 68.5195 85.6211 68.5195C84.944 68.5195 84.3971 68.3047 83.9805 67.875C83.5768 67.4323 83.375 66.8464 83.375 66.1172C83.375 64.8021 84.0846 63.7018 85.5039 62.8164C86.9232 61.931 88.7201 61.4883 90.8945 61.4883C93.4987 61.4883 95.3737 62.1458 96.5195 63.4609C97.6784 64.763 98.2578 66.944 98.2578 70.0039ZM106.324 73.0312V69.9258C106.324 67.3477 106.142 65.7656 105.777 65.1797C105.426 64.5807 104.729 64.2812 103.688 64.2812H103.277V63.3633C104.397 63.168 105.38 63.0247 106.227 62.9336C107.086 62.8294 107.893 62.7708 108.648 62.7578C108.922 62.4844 109.189 62.2435 109.449 62.0352C109.723 61.8268 110.003 61.6445 110.289 61.4883L110.973 61.8398C110.895 62.4518 110.829 63.0768 110.777 63.7148C110.738 64.3398 110.712 64.9974 110.699 65.6875L110.973 65.8047C111.611 64.4115 112.509 63.3633 113.668 62.6602C114.827 61.957 116.22 61.6055 117.848 61.6055C120.217 61.6055 121.93 62.3086 122.984 63.7148C124.039 65.1211 124.566 67.4714 124.566 70.7656V73.7539C124.566 76.5404 124.768 78.2656 125.172 78.9297C125.589 79.5938 126.402 79.9648 127.613 80.043L127.594 81C126.839 80.974 126.038 80.9023 125.191 80.7852C124.358 80.668 123.453 80.4987 122.477 80.2773C122.034 80.4336 121.565 80.5703 121.07 80.6875C120.576 80.8047 120.009 80.9089 119.371 81C119.449 80.1536 119.508 79.112 119.547 77.875C119.586 76.638 119.605 74.9583 119.605 72.8359C119.605 69.151 119.312 66.7227 118.727 65.5508C118.154 64.3789 117.138 63.793 115.68 63.793C114.195 63.793 113.076 64.3659 112.32 65.5117C111.578 66.6576 111.207 68.3698 111.207 70.6484V73.7539C111.207 76.5404 111.409 78.2656 111.812 78.9297C112.229 79.5938 113.043 79.9648 114.254 80.043L114.234 81C113.531 80.9609 112.757 80.8893 111.91 80.7852C111.077 80.681 110.029 80.5117 108.766 80.2773C107.607 80.4857 106.578 80.6484 105.68 80.7656C104.794 80.8828 103.987 80.9609 103.258 81L103.238 80.043C104.462 79.9648 105.283 79.5872 105.699 78.9102C106.116 78.2331 106.324 76.3971 106.324 73.4023V73.0312ZM145.348 87.3672C145.348 86.1302 144.781 85.1667 143.648 84.4766C142.529 83.7865 140.973 83.4414 138.98 83.4414C137.04 83.4414 135.517 83.8125 134.41 84.5547C133.316 85.2969 132.77 86.3255 132.77 87.6406C132.77 88.8906 133.31 89.8997 134.391 90.668C135.471 91.4492 136.91 91.8398 138.707 91.8398C140.686 91.8398 142.288 91.4232 143.512 90.5898C144.736 89.7565 145.348 88.6823 145.348 87.3672ZM138.609 62.7578C137.516 62.7578 136.663 63.2266 136.051 64.1641C135.439 65.0885 135.133 66.3906 135.133 68.0703C135.133 70.0625 135.458 71.625 136.109 72.7578C136.773 73.8776 137.678 74.4375 138.824 74.4375C139.905 74.4375 140.745 73.9818 141.344 73.0703C141.956 72.1458 142.262 70.8568 142.262 69.2031C142.262 67.1979 141.936 65.6224 141.285 64.4766C140.634 63.3307 139.742 62.7578 138.609 62.7578ZM149.664 61.957L149.254 63.7734C149.163 64.151 148.993 64.4115 148.746 64.5547C148.499 64.6979 148.043 64.7695 147.379 64.7695C147.053 64.7695 146.767 64.763 146.52 64.75C146.272 64.737 146.012 64.7109 145.738 64.6719C146.129 65.2448 146.415 65.8633 146.598 66.5273C146.793 67.1784 146.891 67.8685 146.891 68.5977C146.891 70.4987 146.233 72.0807 144.918 73.3438C143.603 74.6068 141.799 75.375 139.508 75.6484C139.456 75.6484 139.391 75.6549 139.312 75.668C136.982 75.9414 135.816 76.5859 135.816 77.6016C135.816 78.5911 137.509 79.3138 140.895 79.7695C141.077 79.7956 141.227 79.8216 141.344 79.8477C144.469 80.2773 146.598 80.9414 147.73 81.8398C148.876 82.7383 149.449 84.0859 149.449 85.8828C149.449 87.9922 148.408 89.737 146.324 91.1172C144.254 92.5104 141.591 93.207 138.336 93.207C135.562 93.207 133.362 92.6862 131.734 91.6445C130.107 90.6159 129.293 89.2292 129.293 87.4844C129.293 86.0911 129.938 84.9518 131.227 84.0664C132.529 83.181 134.339 82.6536 136.656 82.4844V82.2891C135.146 82.1068 133.993 81.7292 133.199 81.1562C132.418 80.5964 132.027 79.8672 132.027 78.9688C132.027 78.1354 132.372 77.4128 133.062 76.8008C133.766 76.1758 134.736 75.7331 135.973 75.4727C134.15 75.0039 132.763 74.2031 131.812 73.0703C130.862 71.9245 130.387 70.4987 130.387 68.793C130.387 66.6315 131.135 64.8737 132.633 63.5195C134.143 62.1654 136.109 61.4883 138.531 61.4883C139.56 61.4883 140.816 61.6836 142.301 62.0742C143.798 62.4518 144.794 62.6406 145.289 62.6406C145.745 62.6406 146.279 62.5951 146.891 62.5039C147.503 62.4128 148.427 62.2305 149.664 61.957ZM163.336 71.2344C162.789 71.4427 162.021 71.7031 161.031 72.0156C158.01 72.9922 156.5 74.3333 156.5 76.0391C156.5 76.9896 156.754 77.7383 157.262 78.2852C157.77 78.819 158.473 79.0859 159.371 79.0859C160.621 79.0859 161.591 78.7018 162.281 77.9336C162.984 77.1654 163.336 76.0781 163.336 74.6719V71.2344ZM168.18 70.0039V73.6758C168.18 75.6419 168.316 76.9635 168.59 77.6406C168.863 78.3047 169.339 78.6367 170.016 78.6367C170.172 78.6367 170.341 78.6042 170.523 78.5391C170.719 78.474 170.992 78.3503 171.344 78.168L171.812 78.9688C171.096 79.6849 170.335 80.2448 169.527 80.6484C168.733 81.0391 167.978 81.2344 167.262 81.2344C166.272 81.2344 165.478 80.9805 164.879 80.4727C164.293 79.9648 163.902 79.2096 163.707 78.207C163.004 79.1836 162.04 79.9583 160.816 80.5312C159.605 81.1042 158.329 81.3906 156.988 81.3906C155.309 81.3906 154 81 153.062 80.2188C152.125 79.4245 151.656 78.3242 151.656 76.918C151.656 74.3789 154.111 72.4648 159.02 71.1758C159.501 71.0456 159.859 70.9479 160.094 70.8828C161.5 70.4922 162.398 70.0755 162.789 69.6328C163.18 69.1771 163.375 68.2721 163.375 66.918C163.375 65.5247 163.128 64.4831 162.633 63.793C162.138 63.1029 161.389 62.7578 160.387 62.7578C159.462 62.7578 158.72 63.0508 158.16 63.6367C157.613 64.2096 157.34 64.9844 157.34 65.9609C157.34 66.3125 157.372 66.638 157.438 66.9375C157.516 67.224 157.633 67.4974 157.789 67.7578C157.385 68.0052 156.995 68.194 156.617 68.3242C156.24 68.4544 155.882 68.5195 155.543 68.5195C154.866 68.5195 154.319 68.3047 153.902 67.875C153.499 67.4323 153.297 66.8464 153.297 66.1172C153.297 64.8021 154.007 63.7018 155.426 62.8164C156.845 61.931 158.642 61.4883 160.816 61.4883C163.421 61.4883 165.296 62.1458 166.441 63.4609C167.6 64.763 168.18 66.944 168.18 70.0039ZM176.09 73.0312V59.8867C176.09 59.3398 176.077 58.7409 176.051 58.0898C176.051 57.9336 176.051 57.8359 176.051 57.7969C176.051 56.0651 175.868 54.9258 175.504 54.3789C175.139 53.832 174.443 53.5586 173.414 53.5586H173.004V52.6016C173.798 52.4453 174.651 52.3151 175.562 52.2109C176.487 52.1068 177.477 52.0221 178.531 51.957C178.909 51.6706 179.26 51.4232 179.586 51.2148C179.911 50.9935 180.237 50.7917 180.562 50.6094L181.246 51C181.142 51.9505 181.064 52.9596 181.012 54.0273C180.96 55.0951 180.934 56.2865 180.934 57.6016V73.4023C180.934 76.4362 181.155 78.2917 181.598 78.9688C182.04 79.6328 182.906 79.9909 184.195 80.043V81C183.323 80.9609 182.411 80.8828 181.461 80.7656C180.51 80.6484 179.521 80.4857 178.492 80.2773C177.464 80.4857 176.474 80.6484 175.523 80.7656C174.586 80.8828 173.681 80.9609 172.809 81V80.043C174.124 79.9909 174.996 79.6263 175.426 78.9492C175.868 78.2591 176.09 76.2865 176.09 73.0312ZM207.77 71.3906C207.77 74.3203 206.767 76.7292 204.762 78.6172C202.77 80.5052 200.198 81.4492 197.047 81.4492C193.896 81.4492 191.318 80.5052 189.312 78.6172C187.307 76.7292 186.305 74.3203 186.305 71.3906C186.305 68.474 187.307 66.0716 189.312 64.1836C191.318 62.2956 193.896 61.3516 197.047 61.3516C200.198 61.3516 202.77 62.2956 204.762 64.1836C206.767 66.0716 207.77 68.474 207.77 71.3906ZM197.047 62.6797C195.419 62.6797 194.143 63.4219 193.219 64.9062C192.307 66.3906 191.852 68.474 191.852 71.1562C191.852 74.112 192.288 76.3516 193.16 77.875C194.046 79.3984 195.341 80.1602 197.047 80.1602C198.727 80.1602 200.016 79.4049 200.914 77.8945C201.812 76.3841 202.262 74.2161 202.262 71.3906C202.262 68.5911 201.812 66.4427 200.914 64.9453C200.016 63.4349 198.727 62.6797 197.047 62.6797ZM213.355 73.0312V70.6484C213.355 67.6406 213.173 65.8307 212.809 65.2188C212.457 64.5938 211.747 64.2812 210.68 64.2812H210.27V63.3633C211.116 63.181 211.969 63.0443 212.828 62.9531C213.688 62.849 214.566 62.7839 215.465 62.7578C215.751 62.4844 216.031 62.2435 216.305 62.0352C216.591 61.8138 216.878 61.6315 217.164 61.4883L217.789 61.8594C217.698 62.7578 217.62 63.6693 217.555 64.5938C217.503 65.5182 217.464 66.4622 217.438 67.4258L217.965 67.5234C218.342 65.7526 219 64.3594 219.938 63.3438C220.875 62.3151 221.949 61.8008 223.16 61.8008C224.111 61.8008 224.866 62.0221 225.426 62.4648C225.999 62.8945 226.285 63.474 226.285 64.2031C226.285 64.737 226.109 65.2057 225.758 65.6094C225.419 66.013 224.924 66.332 224.273 66.5664C223.935 66.1497 223.564 65.8372 223.16 65.6289C222.77 65.4206 222.34 65.3164 221.871 65.3164C220.647 65.3164 219.729 65.9023 219.117 67.0742C218.505 68.2331 218.199 69.9714 218.199 72.2891V73.793C218.199 76.5273 218.46 78.2266 218.98 78.8906C219.501 79.5547 220.589 79.9388 222.242 80.043L222.223 81C221.324 80.987 220.341 80.9154 219.273 80.7852C218.206 80.6549 217.047 80.4727 215.797 80.2383C214.599 80.4596 213.557 80.6354 212.672 80.7656C211.786 80.8828 210.992 80.9609 210.289 81L210.27 80.043C211.493 79.9648 212.314 79.5872 212.73 78.9102C213.147 78.2331 213.355 76.3971 213.355 73.4023V73.0312ZM232.164 68.0312H239.039C239.482 68.0312 239.775 67.9792 239.918 67.875C240.074 67.7708 240.152 67.556 240.152 67.2305C240.152 66.0586 239.755 65.0299 238.961 64.1445C238.167 63.2461 237.223 62.7969 236.129 62.7969C234.983 62.7969 234.033 63.2526 233.277 64.1641C232.535 65.0755 232.164 66.2083 232.164 67.5625V68.0312ZM244.84 69.3594H233.551C233.03 69.3594 232.665 69.4766 232.457 69.7109C232.262 69.9453 232.164 70.375 232.164 71C232.164 73.2656 232.861 75.1732 234.254 76.7227C235.647 78.2721 237.405 79.0469 239.527 79.0469C240.543 79.0469 241.507 78.8711 242.418 78.5195C243.342 78.1549 244.163 77.6341 244.879 76.957L245.406 77.875C244.508 78.9948 243.297 79.8737 241.773 80.5117C240.25 81.1367 238.564 81.4492 236.715 81.4492C233.759 81.4492 231.415 80.5964 229.684 78.8906C227.952 77.1719 227.086 74.8607 227.086 71.957C227.086 68.9883 228.017 66.4948 229.879 64.4766C231.741 62.4583 234.033 61.4492 236.754 61.4492C239.085 61.4492 241.025 62.1133 242.574 63.4414C244.137 64.7695 244.918 66.3841 244.918 68.2852C244.918 68.5456 244.911 68.7539 244.898 68.9102C244.885 69.0664 244.866 69.2161 244.84 69.3594Z" fill="#502976"/>
</svg>
