<svg width="217" height="39" viewBox="0 0 217 39" fill="none" xmlns="http://www.w3.org/2000/svg">
<path d="M36.8 15.5362C36.8792 13.246 36.3783 10.973 35.344 8.92817C34.6423 8.08913 33.6684 7.52291 32.592 7.32817C28.1401 6.92421 23.6697 6.75864 19.2 6.83217C14.7467 6.7553 10.2924 6.91553 5.85604 7.31217C4.97896 7.47172 4.16727 7.88312 3.52004 8.49617C2.08004 9.82417 1.92004 12.0962 1.76004 14.0162C1.5279 17.4683 1.5279 20.9321 1.76004 24.3842C1.80633 25.4648 1.96723 26.5375 2.24004 27.5842C2.43296 28.3923 2.82328 29.1399 3.37604 29.7602C4.02767 30.4057 4.85826 30.8405 5.76004 31.0082C9.20951 31.434 12.6852 31.6104 16.16 31.5362C21.76 31.6162 26.672 31.5362 32.48 31.0882C33.404 30.9308 34.2579 30.4954 34.928 29.8402C35.376 29.392 35.7106 28.8435 35.904 28.2402C36.4762 26.4844 36.7573 24.6467 36.736 22.8002C36.8 21.9042 36.8 16.4962 36.8 15.5362ZM15.584 23.7602V13.8562L25.056 18.8322C22.4 20.3042 18.896 21.9682 15.584 23.7602Z" fill="white"/>
<path d="M80.1231 15.5371C79.3987 15.5371 78.6905 15.7519 78.0882 16.1544C77.4858 16.5569 77.0164 17.1289 76.7392 17.7982C76.4619 18.4675 76.3894 19.204 76.5307 19.9145C76.6721 20.625 77.0209 21.2776 77.5331 21.7899C78.0454 22.3021 78.698 22.651 79.4085 22.7923C80.1191 22.9336 80.8555 22.8611 81.5248 22.5839C82.1941 22.3066 82.7661 21.8372 83.1686 21.2348C83.5711 20.6325 83.7859 19.9243 83.7859 19.1999C83.7859 18.7189 83.6911 18.2426 83.5071 17.7982C83.323 17.3538 83.0532 16.95 82.7131 16.6099C82.373 16.2698 81.9692 16 81.5248 15.8159C81.0804 15.6319 80.6041 15.5371 80.1231 15.5371ZM94.789 11.9187C94.7812 10.7781 94.5712 9.648 94.1687 8.58082C93.8722 7.79991 93.4135 7.09074 92.8229 6.50011C92.2323 5.90947 91.5231 5.4508 90.7422 5.15436C89.675 4.75184 88.5449 4.54182 87.4043 4.53405C85.4991 4.43066 84.9379 4.43066 80.1231 4.43066C75.3083 4.43066 74.7471 4.43066 72.8419 4.53405C71.7013 4.54182 70.5712 4.75184 69.504 5.15436C68.7231 5.4508 68.014 5.90947 67.4233 6.50011C66.8327 7.09074 66.374 7.79991 66.0776 8.58082C65.6751 9.648 65.465 10.7781 65.4573 11.9187C65.3539 13.8239 65.3539 14.3851 65.3539 19.1999C65.3539 24.0147 65.3539 24.5759 65.4573 26.4811C65.4732 27.6257 65.6829 28.7593 66.0776 29.8337C66.3727 30.6111 66.831 31.3161 67.4216 31.9014C68.0097 32.4956 68.7204 32.9543 69.504 33.2454C70.5712 33.6479 71.7013 33.858 72.8419 33.8657C74.7471 33.9691 75.3083 33.9691 80.1231 33.9691C84.9379 33.9691 85.4991 33.9691 87.4043 33.8657C88.5449 33.858 89.675 33.6479 90.7422 33.2454C91.5259 32.9543 92.2366 32.4956 92.8247 31.9014C93.4152 31.3161 93.8735 30.6111 94.1687 29.8337C94.5708 28.7613 94.7808 27.6264 94.789 26.4811C94.8923 24.5759 94.8923 24.0147 94.8923 19.1999C94.8923 14.3851 94.8923 13.8239 94.789 11.9187ZM91.0376 23.734C90.9902 24.6455 90.7957 25.5432 90.4616 26.3925C90.1749 27.101 89.7486 27.7445 89.2082 28.285C88.6678 28.8254 88.0242 29.2516 87.3157 29.5384C86.4584 29.8538 85.5556 30.0284 84.6425 30.0553C83.4757 30.0553 83.1656 30.0553 80.1231 30.0553C77.0807 30.0553 76.7705 30.0553 75.6037 30.0553C74.6906 30.0284 73.7878 29.8538 72.9305 29.5384C72.1981 29.2662 71.5367 28.832 70.9957 28.2682C70.4606 27.7384 70.0473 27.0983 69.7847 26.3925C69.4679 25.5361 69.2982 24.6323 69.2825 23.7193C69.2825 22.5525 69.2825 22.2424 69.2825 19.1999C69.2825 16.1574 69.2825 15.8473 69.2825 14.6805C69.2982 13.7675 69.4679 12.8637 69.7847 12.0073C70.0568 11.2749 70.491 10.6135 71.0548 10.0725C71.587 9.54026 72.2264 9.12742 72.9305 8.86143C73.7878 8.54597 74.6906 8.3714 75.6037 8.34451C76.7705 8.34451 77.0807 8.34451 80.1231 8.34451C83.1656 8.34451 83.4757 8.34451 84.6425 8.34451C85.5556 8.3714 86.4584 8.54597 87.3157 8.86143C88.0481 9.1336 88.7095 9.56781 89.2505 10.1316C89.7856 10.6614 90.1989 11.3015 90.4616 12.0073C90.777 12.8646 90.9516 13.7674 90.9785 14.6805C90.9785 15.8473 90.9785 16.1574 90.9785 19.1999C90.9785 22.2424 91.0819 22.5525 91.0376 23.7193V23.734ZM88.6745 12.7457C88.4987 12.2687 88.2214 11.8354 87.8619 11.4759C87.5023 11.1164 87.0691 10.8391 86.592 10.6633C85.937 10.4362 85.2471 10.3262 84.5539 10.3384C83.4019 10.3384 83.077 10.3384 80.1231 10.3384C77.1693 10.3384 76.8443 10.3384 75.6923 10.3384C74.9956 10.3452 74.3056 10.4752 73.6542 10.7224C73.1844 10.8902 72.7558 11.1561 72.3967 11.5025C72.0377 11.8488 71.7564 12.2676 71.5717 12.731C71.3572 13.3887 71.2525 14.0773 71.2616 14.7691C71.2616 15.9211 71.2616 16.246 71.2616 19.1999C71.2616 22.1537 71.2616 22.4787 71.2616 23.6307C71.2762 24.3266 71.406 25.0153 71.6456 25.6688C71.8214 26.1459 72.0987 26.5791 72.4582 26.9387C72.8177 27.2982 73.251 27.5754 73.728 27.7513C74.3582 27.983 75.0213 28.1127 75.6923 28.1353C76.8443 28.1353 77.1693 28.1353 80.1231 28.1353C83.077 28.1353 83.4019 28.1353 84.5539 28.1353C85.2506 28.1285 85.9406 27.9985 86.592 27.7513C87.0691 27.5754 87.5023 27.2982 87.8619 26.9387C88.2214 26.5791 88.4987 26.1459 88.6745 25.6688C88.9217 25.0174 89.0517 24.3274 89.0585 23.6307C89.0585 22.4787 89.0585 22.1537 89.0585 19.1999C89.0585 16.246 89.0585 15.9211 89.0585 14.7691C89.0589 14.0717 88.9287 13.3804 88.6745 12.731V12.7457ZM80.1231 24.8417C79.3829 24.8417 78.65 24.6957 77.9663 24.412C77.2826 24.1283 76.6617 23.7125 76.1389 23.1884C75.6162 22.6643 75.202 22.0422 74.9201 21.3578C74.6382 20.6734 74.4941 19.9401 74.496 19.1999C74.496 18.0834 74.8273 16.992 75.4479 16.0639C76.0685 15.1358 76.9505 14.4127 77.9823 13.9861C79.014 13.5595 80.1492 13.4487 81.244 13.6676C82.3388 13.8865 83.3441 14.4253 84.1325 15.2158C84.9209 16.0063 85.4571 17.0129 85.6731 18.1083C85.8891 19.2037 85.7753 20.3385 85.346 21.3692C84.9167 22.3998 84.1913 23.28 83.2616 23.8981C82.3318 24.5163 81.2396 24.8447 80.1231 24.8417ZM86.0308 14.6657C85.7043 14.6312 85.4022 14.477 85.1826 14.233C84.963 13.9889 84.8415 13.6722 84.8415 13.3439C84.8415 13.0156 84.963 12.6989 85.1826 12.4548C85.4022 12.2108 85.7043 12.0566 86.0308 12.022C86.3573 12.0566 86.6594 12.2108 86.879 12.4548C87.0986 12.6989 87.2201 13.0156 87.2201 13.3439C87.2201 13.6722 87.0986 13.9889 86.879 14.233C86.6594 14.477 86.3573 14.6312 86.0308 14.6657Z" fill="white"/>
<path d="M152.714 4.43066H126.425C125.994 4.43066 125.581 4.60183 125.276 4.9065C124.971 5.21118 124.8 5.6244 124.8 6.05528V32.3445C124.8 32.5579 124.842 32.7691 124.924 32.9662C125.005 33.1633 125.125 33.3424 125.276 33.4933C125.427 33.6441 125.606 33.7638 125.803 33.8455C126 33.9271 126.211 33.9691 126.425 33.9691H140.574V22.523H136.734V18.0922H140.574V14.7691C140.494 13.989 140.586 13.2008 140.843 12.46C141.101 11.7192 141.517 11.0437 142.063 10.4807C142.609 9.91784 143.272 9.48121 144.004 9.20148C144.737 8.92174 145.522 8.80568 146.304 8.86143C147.454 8.85436 148.603 8.91353 149.745 9.03866V13.0264H147.397C145.536 13.0264 145.182 13.9125 145.182 15.1974V18.0479H149.612L149.036 22.4787H145.182V33.9691H152.714C152.927 33.9691 153.139 33.9271 153.336 33.8455C153.533 33.7638 153.712 33.6441 153.863 33.4933C154.014 33.3424 154.133 33.1633 154.215 32.9662C154.296 32.7691 154.339 32.5579 154.339 32.3445V6.05528C154.339 5.84193 154.296 5.63067 154.215 5.43357C154.133 5.23646 154.014 5.05736 153.863 4.9065C153.712 4.75564 153.533 4.63598 153.336 4.55433C153.139 4.47269 152.927 4.43066 152.714 4.43066Z" fill="white"/>
<path d="M213.785 11.1507C213.768 10.5135 213.719 9.87756 213.637 9.24543C213.527 8.69177 213.343 8.15533 213.091 7.65036C212.827 7.10257 212.472 6.60326 212.042 6.17343C211.608 5.74838 211.109 5.39449 210.565 5.12482C210.059 4.87735 209.523 4.69854 208.97 4.59313C208.344 4.49934 207.712 4.44508 207.079 4.43066H190.966C190.329 4.44726 189.693 4.49655 189.061 4.57836C188.507 4.68864 187.971 4.87242 187.466 5.12482C186.918 5.3888 186.419 5.74331 185.989 6.17343C185.564 6.60752 185.21 7.10595 184.94 7.65036C184.693 8.156 184.514 8.69244 184.409 9.24543C184.315 9.87155 184.261 10.503 184.246 11.1359C184.246 11.4165 184.246 11.8153 184.246 11.9334V26.4664C184.246 26.6288 184.246 26.9833 184.246 27.2491C184.263 27.8863 184.312 28.5222 184.394 29.1544C184.504 29.708 184.688 30.2445 184.94 30.7494C185.204 31.2972 185.559 31.7965 185.989 32.2264C186.423 32.6514 186.922 33.0053 187.466 33.275C187.972 33.5224 188.508 33.7013 189.061 33.8067C189.687 33.9004 190.319 33.9547 190.951 33.9691H207.065C207.702 33.9525 208.338 33.9032 208.97 33.8214C209.524 33.7112 210.06 33.5274 210.565 33.275C211.113 33.011 211.612 32.6565 212.042 32.2264C212.467 31.7923 212.821 31.2938 213.091 30.7494C213.338 30.2438 213.517 29.7074 213.622 29.1544C213.716 28.5282 213.77 27.8968 213.785 27.2639C213.785 26.9833 213.785 26.6288 213.785 26.4664V11.9334C213.785 11.8153 213.785 11.4165 213.785 11.1507ZM199.355 29.5384C197.581 29.5296 195.839 29.0723 194.289 28.2091L188.677 29.6861L190.154 24.1919C189.201 22.5916 188.692 20.7668 188.677 18.9045C188.683 16.8116 189.308 14.7672 190.473 13.0289C191.639 11.2905 193.293 9.93594 195.227 9.13572C197.161 8.3355 199.288 8.12544 201.341 8.53199C203.394 8.93854 205.281 9.94352 206.764 11.4204C208.247 12.8972 209.26 14.7798 209.675 16.8312C210.09 18.8825 209.889 21.0108 209.097 22.948C208.304 24.8853 206.957 26.5447 205.223 27.7175C203.49 28.8902 201.448 29.5238 199.355 29.5384ZM199.355 10.1464C197.789 10.1643 196.256 10.5968 194.912 11.3999C193.568 12.203 192.46 13.3479 191.702 14.7182C190.944 16.0885 190.563 17.6351 190.597 19.2007C190.631 20.7662 191.08 22.2948 191.897 23.6307L192.103 23.9704L191.217 27.2048L194.585 26.2891L194.91 26.4811C196.253 27.2724 197.781 27.6952 199.34 27.707C201.691 27.707 203.945 26.7733 205.606 25.1115C207.268 23.4496 208.202 21.1957 208.202 18.8454C208.202 16.4952 207.268 14.2412 205.606 12.5794C203.945 10.9175 201.691 9.9839 199.34 9.9839L199.355 10.1464ZM204.524 22.7297C204.331 23.0524 204.072 23.3309 203.764 23.5471C203.456 23.7634 203.106 23.9126 202.737 23.9851C202.186 24.0859 201.618 24.0505 201.083 23.8817C200.58 23.7244 200.087 23.537 199.606 23.3205C197.78 22.4043 196.223 21.0304 195.087 19.3328C194.469 18.5463 194.095 17.5968 194.009 16.6005C194 16.1867 194.078 15.7756 194.238 15.3939C194.399 15.0123 194.637 14.6686 194.939 14.3851C195.028 14.2844 195.137 14.2034 195.259 14.1474C195.381 14.0915 195.514 14.0617 195.648 14.0602H196.062C196.224 14.0602 196.446 14.0602 196.652 14.518C196.859 14.9759 197.406 16.3494 197.479 16.4824C197.516 16.5532 197.535 16.6317 197.535 16.7113C197.535 16.7909 197.516 16.8694 197.479 16.9402C197.414 17.1007 197.324 17.2501 197.214 17.3833C197.081 17.5457 196.933 17.7377 196.815 17.8559C196.697 17.974 196.549 18.1217 196.697 18.3876C197.099 19.0658 197.596 19.6826 198.174 20.219C198.803 20.7748 199.522 21.2193 200.3 21.5334C200.566 21.6664 200.729 21.6516 200.876 21.5334C201.024 21.4153 201.541 20.7654 201.718 20.4996C201.895 20.2337 202.073 20.278 202.309 20.3667C202.545 20.4553 203.86 21.0904 204.126 21.2233C204.391 21.3562 204.554 21.4153 204.628 21.5334C204.692 21.92 204.656 22.3165 204.524 22.6854V22.7297Z" fill="white"/>
</svg>
