<svg width="44" height="44" viewBox="0 0 44 44" fill="none" xmlns="http://www.w3.org/2000/svg">
<circle cx="22" cy="22" r="21" fill="white" stroke="#502976" stroke-width="2"/>
<path d="M14.097 21.2645C14.1585 21.1059 14.2506 20.961 14.3682 20.8382L20.8266 14.3799C20.947 14.2594 21.09 14.1639 21.2473 14.0987C21.4047 14.0335 21.5733 14 21.7437 14C22.0876 14 22.4175 14.1366 22.6607 14.3799C22.7812 14.5003 22.8767 14.6433 22.9419 14.8006C23.0071 14.958 23.0406 15.1266 23.0406 15.297C23.0406 15.6409 22.904 15.9708 22.6607 16.214L18.3982 20.4636H28.202C28.5446 20.4636 28.8731 20.5997 29.1153 20.8419C29.3576 21.0842 29.4937 21.4127 29.4937 21.7553C29.4937 22.0979 29.3576 22.4264 29.1153 22.6686C28.8731 22.9109 28.5446 23.047 28.202 23.047H18.3982L22.6607 27.2965C22.7818 27.4166 22.8779 27.5595 22.9435 27.7169C23.009 27.8743 23.0428 28.0431 23.0428 28.2136C23.0428 28.3841 23.009 28.553 22.9435 28.7104C22.8779 28.8678 22.7818 29.0106 22.6607 29.1307C22.5407 29.2518 22.3978 29.3479 22.2404 29.4134C22.083 29.479 21.9142 29.5128 21.7437 29.5128C21.5731 29.5128 21.4043 29.479 21.2469 29.4134C21.0895 29.3479 20.9466 29.2518 20.8266 29.1307L14.3682 22.6724C14.2506 22.5495 14.1585 22.4047 14.097 22.2461C13.9678 21.9316 13.9678 21.5789 14.097 21.2645Z" fill="#502976"/>
</svg>
