<svg width="281" height="56" viewBox="0 0 281 56" fill="none" xmlns="http://www.w3.org/2000/svg">
<g clip-path="url(#clip0_335_2565)">
<path d="M0 6.1156H3.24663V47.9348H0V6.1156ZM2.76619 6.48216H0.84616V47.6931H2.76619V6.48216Z" fill="#502976"/>
<path d="M109.936 32.0504V56H107.056V32.0504H109.936ZM109.576 32.4161H107.656V55.7583H109.576V32.4161Z" fill="#502976"/>
<path d="M109.936 28.4517V31.4297H107.056V30.437C108.016 29.7753 108.976 29.1135 109.936 28.4517ZM109.457 30.9338V29.1964C108.817 29.6513 108.177 30.1062 107.537 30.561V30.9329H109.457V30.9338Z" fill="#502976"/>
<path d="M89.5783 42.3971C85.3311 45.5454 80.7708 49.4733 76.389 52.2737C73.6643 54.0147 70.4521 54.532 67.2736 54.2608C64.3142 54.0084 61.8827 52.1631 59.5417 50.4668C49.5621 43.239 40.0093 35.3477 30.0184 28.1307C29.5406 27.5527 28.5107 27.3761 28.829 26.4245C29.0196 25.8537 30.6498 25.6637 31.1164 26.0026C40.4139 31.2406 49.4723 36.9469 58.7499 42.2268C64.9353 45.747 68.7978 48.2978 75.8551 44.5233C86.3498 38.9117 96.2725 32.029 106.714 26.2987C107.811 25.4069 111.004 25.5085 109.685 27.5099C102.994 32.4884 96.2768 37.432 89.5774 42.3962L89.5783 42.3971Z" fill="#502976"/>
<path d="M48.9505 0.427199C49.0376 0.5699 49.0074 1.19154 48.8504 1.3378L21.6715 21.6307C18.192 24.6318 16.8344 27.9648 20.7115 31.4261L48.8487 52.9614C49.5362 54.4044 47.4488 54.6399 46.5492 54.2225C33.8766 46.6112 21.0332 39.2506 8.52543 31.3691C5.67902 28.8754 5.152 26.2024 8.11054 23.492C20.7348 15.4286 33.7498 7.99566 46.5224 0.171231C46.9287 0.00534216 47.7585 -0.043711 48.1854 0.0401253C48.2579 0.0543953 48.9281 0.389741 48.9505 0.427199Z" fill="#502976"/>
</g>
<path d="M134.938 19.5039C135.5 19.5352 136.117 19.5938 136.789 19.6797C137.469 19.7578 138.195 19.8594 138.969 19.9844C139.742 19.8594 140.461 19.7578 141.125 19.6797C141.789 19.5938 142.406 19.5391 142.977 19.5156V20.0781C142.047 20.1406 141.418 20.4375 141.09 20.9688C140.762 21.5 140.598 22.7539 140.598 24.7305V26.5586V31.5977C140.598 33.6289 140.762 34.9219 141.09 35.4766C141.426 36.0234 142.055 36.332 142.977 36.4023V36.9883C142.406 36.9648 141.789 36.9141 141.125 36.8359C140.461 36.75 139.742 36.6445 138.969 36.5195C138.031 36.668 137.246 36.7812 136.613 36.8594C135.988 36.9297 135.43 36.9766 134.938 37V36.4023C135.867 36.3398 136.496 36.043 136.824 35.5117C137.152 34.9805 137.316 33.7227 137.316 31.7383V29.9453V24.9062C137.316 22.875 137.152 21.582 136.824 21.0273C136.496 20.4727 135.867 20.1562 134.938 20.0781V19.5039ZM147.078 28.7734V25.5977C147.078 23.1289 146.898 21.6133 146.539 21.0508C146.188 20.4883 145.496 20.1719 144.465 20.1016V19.5039C145.043 19.5508 145.566 19.6016 146.035 19.6562C146.504 19.7109 146.949 19.7734 147.371 19.8438C147.816 19.7266 148.148 19.6445 148.367 19.5977C148.594 19.5508 148.773 19.5273 148.906 19.5273C149.336 19.5273 150.082 20.1758 151.145 21.4727C151.262 21.6133 151.348 21.7188 151.402 21.7891C152.816 23.4922 154.301 25.2305 155.855 27.0039C157.418 28.7695 159.039 30.5586 160.719 32.3711V25.7734C160.719 23.3594 160.551 21.8164 160.215 21.1445C159.879 20.4727 159.254 20.125 158.34 20.1016V19.5039C158.754 19.5273 159.203 19.5742 159.688 19.6445C160.18 19.707 160.762 19.8047 161.434 19.9375C162.215 19.7969 162.816 19.6992 163.238 19.6445C163.668 19.582 164.059 19.5391 164.41 19.5156V20.1016H164.316C163.465 20.1016 162.887 20.6094 162.582 21.625C162.277 22.6406 162.125 25.125 162.125 29.0781V34.2695C162.125 34.7539 162.133 35.25 162.148 35.7578C162.164 36.2656 162.18 36.7734 162.195 37.2812C161.891 37.1953 161.59 37.1289 161.293 37.082C160.996 37.043 160.699 37.0234 160.402 37.0234C158.277 34.4219 156.223 31.9766 154.238 29.6875C152.254 27.3906 150.34 25.2539 148.496 23.2773V27.7305C148.496 29.9648 148.531 31.6523 148.602 32.793C148.672 33.9258 148.789 34.7266 148.953 35.1953C149.086 35.5625 149.336 35.8477 149.703 36.0508C150.07 36.2461 150.555 36.3633 151.156 36.4023V37C150.625 36.9766 150.074 36.9297 149.504 36.8594C148.941 36.7812 148.367 36.6836 147.781 36.5664C147.078 36.6992 146.484 36.8008 146 36.8711C145.516 36.9336 145.07 36.9766 144.664 37L144.652 36.4023C145.605 36.4023 146.246 36.0352 146.574 35.3008C146.91 34.5586 147.078 32.582 147.078 29.3711V28.7734ZM169.191 37V36.4023C169.863 36.3477 170.387 36.25 170.762 36.1094C171.137 35.9609 171.402 35.7461 171.559 35.4648C171.738 35.1602 171.863 34.7031 171.934 34.0938C172.004 33.4766 172.039 32.332 172.039 30.6602V29.9453V26.5586C172.039 25.6211 172.031 24.6562 172.016 23.6641C172.008 22.6641 171.992 21.6055 171.969 20.4883H170.363C168.887 20.4883 167.844 20.7227 167.234 21.1914C166.625 21.6602 166.25 22.5039 166.109 23.7227H165.348C165.379 23.2539 165.441 22.7656 165.535 22.2578C165.637 21.75 165.766 21.2305 165.922 20.6992C165.859 20.4102 165.809 20.1133 165.77 19.8086C165.738 19.5039 165.719 19.1719 165.711 18.8125L166.402 18.7891C166.402 18.9609 166.426 19.0469 166.473 19.0469C166.473 19.2266 166.598 19.3516 166.848 19.4219C167.105 19.4922 167.605 19.5273 168.348 19.5273C168.527 19.5273 168.875 19.5234 169.391 19.5156C169.906 19.5078 170.336 19.5039 170.68 19.5039H173.68H176.68H178.672C179.586 19.5039 180.188 19.457 180.477 19.3633C180.773 19.2695 180.922 19.1016 180.922 18.8594V18.9297V18.8125H181.613C181.605 19.2344 181.586 19.5938 181.555 19.8906C181.523 20.1797 181.48 20.4492 181.426 20.6992C181.598 21.3242 181.727 21.8789 181.812 22.3633C181.906 22.8398 181.969 23.293 182 23.7227H181.215C181.082 22.5898 180.734 21.7969 180.172 21.3438C179.617 20.8906 178.547 20.6055 176.961 20.4883H175.379C175.355 21.5664 175.336 22.6055 175.32 23.6055C175.312 24.6055 175.309 25.5898 175.309 26.5586V31.2344C175.309 32.6797 175.34 33.6758 175.402 34.2227C175.473 34.7617 175.594 35.1758 175.766 35.4648C175.922 35.7461 176.188 35.9609 176.562 36.1094C176.938 36.25 177.461 36.3477 178.133 36.4023V37C177.477 36.9922 176.781 36.9453 176.047 36.8594C175.312 36.7656 174.523 36.6367 173.68 36.4727C172.828 36.6367 172.031 36.7656 171.289 36.8594C170.547 36.9453 169.848 36.9922 169.191 37ZM183.172 19.5039C183.781 19.543 184.391 19.6055 185 19.6914C185.609 19.7695 186.23 19.875 186.863 20.0078C187.738 19.8438 188.73 19.7188 189.84 19.6328C190.957 19.5469 192.188 19.5039 193.531 19.5039H194.398C195.094 19.5039 195.535 19.5469 195.723 19.6328C195.91 19.7109 196.004 19.8672 196.004 20.1016C196.004 20.1875 195.973 20.293 195.91 20.418C195.855 20.543 195.766 20.6953 195.641 20.875C195.727 21.4297 195.785 21.8633 195.816 22.1758C195.848 22.4883 195.863 22.7734 195.863 23.0312C195.863 23.0781 195.859 23.1523 195.852 23.2539C195.844 23.3477 195.84 23.418 195.84 23.4648H195.113C195.051 22.4492 194.77 21.7539 194.27 21.3789C193.77 20.9961 192.828 20.8047 191.445 20.8047H188.902C188.879 21.4375 188.859 22.0742 188.844 22.7148C188.836 23.3477 188.832 23.9883 188.832 24.6367V27.3789H191.211C192.367 27.3789 193.141 27.2617 193.531 27.0273C193.93 26.793 194.164 26.3633 194.234 25.7383L194.996 25.75C194.973 26.0703 194.926 26.4141 194.855 26.7812C194.793 27.1406 194.703 27.5312 194.586 27.9531C194.695 28.4219 194.781 28.8438 194.844 29.2188C194.906 29.5859 194.949 29.9297 194.973 30.25L194.211 30.2617C194.148 29.5977 193.934 29.1523 193.566 28.9258C193.207 28.6914 192.387 28.5742 191.105 28.5742H188.832V32.2422C188.832 33.8984 189.012 34.8867 189.371 35.207C189.738 35.5195 190.59 35.6758 191.926 35.6758C193.449 35.6758 194.586 35.4141 195.336 34.8906C196.094 34.3594 196.559 33.5039 196.73 32.3242H197.539C197.484 32.9883 197.391 33.5703 197.258 34.0703C197.133 34.5703 196.965 35.0273 196.754 35.4414C196.832 35.582 196.891 35.7148 196.93 35.8398C196.969 35.957 196.988 36.0703 196.988 36.1797C196.988 36.5 196.82 36.7188 196.484 36.8359C196.156 36.9453 195.355 37 194.082 37H192.98C191.629 37 190.469 36.957 189.5 36.8711C188.531 36.7852 187.668 36.6523 186.91 36.4727C186.184 36.6289 185.512 36.75 184.895 36.8359C184.277 36.9219 183.703 36.9766 183.172 37V36.4023C184.109 36.3398 184.742 36.0391 185.07 35.5C185.398 34.9531 185.562 33.5312 185.562 31.2344V30.8125V29.9453V26.5586C185.562 26.207 185.559 25.8477 185.551 25.4805C185.543 25.1133 185.539 24.9219 185.539 24.9062C185.539 22.875 185.371 21.5859 185.035 21.0391C184.707 20.4844 184.086 20.1719 183.172 20.1016V19.5039ZM204.582 28.2812C204.949 28.3281 205.262 28.3633 205.52 28.3867C205.785 28.4023 206.023 28.4102 206.234 28.4102C207.352 28.4102 208.227 28.0781 208.859 27.4141C209.492 26.75 209.809 25.832 209.809 24.6602C209.809 23.3008 209.461 22.2461 208.766 21.4961C208.07 20.7461 207.09 20.3711 205.824 20.3711C205.621 20.3711 205.27 20.3984 204.77 20.4531C204.715 20.4531 204.668 20.457 204.629 20.4648V20.6055C204.598 22.207 204.582 23.3906 204.582 24.1562V28.2812ZM210.031 28.2344C211.578 31.3672 212.863 33.5117 213.887 34.668C214.91 35.8242 215.969 36.4023 217.062 36.4023H217.227V37C216.906 37.0469 216.637 37.0781 216.418 37.0938C216.207 37.1094 216.004 37.1172 215.809 37.1172C214.684 37.1172 213.773 37.0195 213.078 36.8242C212.391 36.6211 211.781 36.2891 211.25 35.8281C210.43 35.1094 209.539 33.7812 208.578 31.8438C208.227 31.1328 207.957 30.6133 207.77 30.2852C207.395 29.5977 206.613 29.2383 205.426 29.207C205.074 29.1992 204.793 29.1914 204.582 29.1836V31.5508C204.582 33.6445 204.746 34.9648 205.074 35.5117C205.402 36.0508 206.027 36.3477 206.949 36.4023V37C206.379 36.9766 205.766 36.9258 205.109 36.8477C204.453 36.7695 203.742 36.6602 202.977 36.5195C202.039 36.6758 201.266 36.7891 200.656 36.8594C200.047 36.9297 199.484 36.9766 198.969 37L198.957 36.4023C199.887 36.3477 200.516 36.0586 200.844 35.5352C201.172 35.0117 201.336 33.7578 201.336 31.7734V29.9453V24.9531C201.336 22.8594 201.164 21.5391 200.82 20.9922C200.477 20.4375 199.816 20.1328 198.84 20.0781L198.852 19.5039C199.445 19.5273 200.043 19.5742 200.645 19.6445C201.254 19.7148 201.879 19.8125 202.52 19.9375C203.27 19.7734 204.016 19.6523 204.758 19.5742C205.5 19.4961 206.258 19.457 207.031 19.457C209.125 19.457 210.711 19.8398 211.789 20.6055C212.867 21.3633 213.406 22.4844 213.406 23.9688C213.406 24.9609 213.109 25.832 212.516 26.582C211.93 27.332 211.102 27.8828 210.031 28.2344ZM217.555 19.5039C218.117 19.5352 218.734 19.5938 219.406 19.6797C220.086 19.7578 220.812 19.8594 221.586 19.9844C222.359 19.8594 223.078 19.7578 223.742 19.6797C224.406 19.5938 225.023 19.5391 225.594 19.5156V20.0781C224.664 20.1406 224.035 20.4375 223.707 20.9688C223.379 21.5 223.215 22.7539 223.215 24.7305V26.5586V31.5977C223.215 33.6289 223.379 34.9219 223.707 35.4766C224.043 36.0234 224.672 36.332 225.594 36.4023V36.9883C225.023 36.9648 224.406 36.9141 223.742 36.8359C223.078 36.75 222.359 36.6445 221.586 36.5195C220.648 36.668 219.863 36.7812 219.23 36.8594C218.605 36.9297 218.047 36.9766 217.555 37V36.4023C218.484 36.3398 219.113 36.043 219.441 35.5117C219.77 34.9805 219.934 33.7227 219.934 31.7383V29.9453V24.9062C219.934 22.875 219.77 21.582 219.441 21.0273C219.113 20.4727 218.484 20.1562 217.555 20.0781V19.5039ZM236.879 36.4492C238.551 36.4492 239.887 35.707 240.887 34.2227C241.895 32.7383 242.398 30.7422 242.398 28.2344C242.398 25.7344 241.895 23.7461 240.887 22.2695C239.887 20.793 238.551 20.0547 236.879 20.0547C235.207 20.0547 233.871 20.793 232.871 22.2695C231.879 23.7461 231.383 25.7344 231.383 28.2344C231.383 30.75 231.879 32.75 232.871 34.2344C233.871 35.7109 235.207 36.4492 236.879 36.4492ZM246.254 28.2344C246.254 30.8438 245.367 33.0078 243.594 34.7266C241.828 36.4375 239.59 37.293 236.879 37.293C234.168 37.293 231.93 36.4375 230.164 34.7266C228.398 33.0078 227.516 30.8438 227.516 28.2344C227.516 25.6328 228.398 23.4805 230.164 21.7773C231.93 20.0664 234.168 19.2109 236.879 19.2109C239.59 19.2109 241.828 20.0664 243.594 21.7773C245.367 23.4883 246.254 25.6406 246.254 28.2344ZM253.613 28.2812C253.98 28.3281 254.293 28.3633 254.551 28.3867C254.816 28.4023 255.055 28.4102 255.266 28.4102C256.383 28.4102 257.258 28.0781 257.891 27.4141C258.523 26.75 258.84 25.832 258.84 24.6602C258.84 23.3008 258.492 22.2461 257.797 21.4961C257.102 20.7461 256.121 20.3711 254.855 20.3711C254.652 20.3711 254.301 20.3984 253.801 20.4531C253.746 20.4531 253.699 20.457 253.66 20.4648V20.6055C253.629 22.207 253.613 23.3906 253.613 24.1562V28.2812ZM259.062 28.2344C260.609 31.3672 261.895 33.5117 262.918 34.668C263.941 35.8242 265 36.4023 266.094 36.4023H266.258V37C265.938 37.0469 265.668 37.0781 265.449 37.0938C265.238 37.1094 265.035 37.1172 264.84 37.1172C263.715 37.1172 262.805 37.0195 262.109 36.8242C261.422 36.6211 260.812 36.2891 260.281 35.8281C259.461 35.1094 258.57 33.7812 257.609 31.8438C257.258 31.1328 256.988 30.6133 256.801 30.2852C256.426 29.5977 255.645 29.2383 254.457 29.207C254.105 29.1992 253.824 29.1914 253.613 29.1836V31.5508C253.613 33.6445 253.777 34.9648 254.105 35.5117C254.434 36.0508 255.059 36.3477 255.98 36.4023V37C255.41 36.9766 254.797 36.9258 254.141 36.8477C253.484 36.7695 252.773 36.6602 252.008 36.5195C251.07 36.6758 250.297 36.7891 249.688 36.8594C249.078 36.9297 248.516 36.9766 248 37L247.988 36.4023C248.918 36.3477 249.547 36.0586 249.875 35.5352C250.203 35.0117 250.367 33.7578 250.367 31.7734V29.9453V24.9531C250.367 22.8594 250.195 21.5391 249.852 20.9922C249.508 20.4375 248.848 20.1328 247.871 20.0781L247.883 19.5039C248.477 19.5273 249.074 19.5742 249.676 19.6445C250.285 19.7148 250.91 19.8125 251.551 19.9375C252.301 19.7734 253.047 19.6523 253.789 19.5742C254.531 19.4961 255.289 19.457 256.062 19.457C258.156 19.457 259.742 19.8398 260.82 20.6055C261.898 21.3633 262.438 22.4844 262.438 23.9688C262.438 24.9609 262.141 25.832 261.547 26.582C260.961 27.332 260.133 27.8828 259.062 28.2344ZM267.371 36.8125C267.434 36.4609 267.508 36.1289 267.594 35.8164C267.688 35.5039 267.793 35.2031 267.91 34.9141C267.809 34.3359 267.734 33.8203 267.688 33.3672C267.641 32.9062 267.617 32.4688 267.617 32.0547C267.617 31.9922 267.621 31.8945 267.629 31.7617C267.637 31.6211 267.641 31.5195 267.641 31.457H268.484C268.562 32.9961 269.012 34.207 269.832 35.0898C270.652 35.9648 271.738 36.4023 273.09 36.4023C274.152 36.4023 275 36.125 275.633 35.5703C276.273 35.0078 276.594 34.2617 276.594 33.332C276.594 32.5117 276.336 31.8281 275.82 31.2812C275.305 30.7344 274.25 30.1289 272.656 29.4648C270.758 28.6602 269.457 27.875 268.754 27.1094C268.059 26.3359 267.711 25.375 267.711 24.2266C267.711 22.7422 268.254 21.5391 269.34 20.6172C270.434 19.6953 271.875 19.2344 273.664 19.2344C274.297 19.2344 275.008 19.3125 275.797 19.4688C276.594 19.6172 277.074 19.6914 277.238 19.6914C277.387 19.6914 277.512 19.6602 277.613 19.5977C277.723 19.5352 277.797 19.4492 277.836 19.3398L278.609 19.3867C278.547 19.6523 278.473 19.918 278.387 20.1836C278.301 20.4492 278.207 20.7031 278.105 20.9453C278.168 21.3438 278.215 21.7305 278.246 22.1055C278.277 22.4727 278.293 22.8281 278.293 23.1719C278.293 23.2578 278.289 23.3828 278.281 23.5469C278.273 23.7031 278.27 23.8203 278.27 23.8984H277.461C277.383 22.7109 277.012 21.7812 276.348 21.1094C275.684 20.4375 274.805 20.1016 273.711 20.1016C272.742 20.1016 271.965 20.3594 271.379 20.875C270.793 21.3906 270.5 22.0703 270.5 22.9141C270.5 24.2812 271.945 25.582 274.836 26.8164C274.891 26.8398 274.934 26.8594 274.965 26.875C276.668 27.6094 277.863 28.3711 278.551 29.1602C279.246 29.9414 279.594 30.9062 279.594 32.0547C279.594 33.5859 278.992 34.8398 277.789 35.8164C276.586 36.7852 275.012 37.2695 273.066 37.2695C272.191 37.2695 271.277 37.1211 270.324 36.8242C269.371 36.5273 268.836 36.3789 268.719 36.3789C268.555 36.3789 268.422 36.418 268.32 36.4961C268.219 36.5664 268.137 36.6875 268.074 36.8594L267.371 36.8125Z" fill="#502976"/>
<defs>
<clipPath id="clip0_335_2565">
<rect width="110" height="56" fill="white"/>
</clipPath>
</defs>
</svg>
