<svg width="44" height="44" viewBox="0 0 44 44" fill="none" xmlns="http://www.w3.org/2000/svg">
<circle cx="22" cy="22" r="21" fill="white" stroke="#502976" stroke-width="2"/>
<path d="M29.3967 21.2645C29.3352 21.1059 29.243 20.961 29.1254 20.8382L22.6671 14.3799C22.5466 14.2594 22.4037 14.1639 22.2463 14.0987C22.089 14.0335 21.9203 14 21.75 14C21.406 14 21.0761 14.1366 20.8329 14.3799C20.7125 14.5003 20.617 14.6433 20.5518 14.8006C20.4866 14.958 20.453 15.1266 20.453 15.297C20.453 15.6409 20.5897 15.9708 20.8329 16.214L25.0954 20.4636H15.2917C14.9491 20.4636 14.6206 20.5997 14.3783 20.8419C14.1361 21.0842 14 21.4127 14 21.7553C14 22.0979 14.1361 22.4264 14.3783 22.6686C14.6206 22.9109 14.9491 23.047 15.2917 23.047H25.0954L20.8329 27.2965C20.7119 27.4166 20.6158 27.5595 20.5502 27.7169C20.4846 27.8743 20.4508 28.0431 20.4508 28.2136C20.4508 28.3841 20.4846 28.553 20.5502 28.7104C20.6158 28.8678 20.7119 29.0106 20.8329 29.1307C20.953 29.2518 21.0959 29.3479 21.2533 29.4134C21.4107 29.479 21.5795 29.5128 21.75 29.5128C21.9205 29.5128 22.0893 29.479 22.2467 29.4134C22.4041 29.3479 22.547 29.2518 22.6671 29.1307L29.1254 22.6724C29.243 22.5495 29.3352 22.4047 29.3967 22.2461C29.5259 21.9316 29.5259 21.5789 29.3967 21.2645Z" fill="#502976"/>
</svg>
