<svg width="1439" height="500" viewBox="0 0 1439 500" fill="none" xmlns="http://www.w3.org/2000/svg">
<path d="M1438.31 422.768H515.045C513.895 422.768 513.02 423.635 513.215 424.583L518.082 448.439C518.228 449.172 518.987 449.71 519.875 449.71C520.942 449.71 521.78 448.944 521.685 448.055L518.769 420.822C518.681 419.993 519.403 419.258 520.391 419.175C525.492 418.739 539.756 416.911 539.642 410.107C539.506 401.823 533.127 394.22 492.409 393.992C451.69 393.766 441.512 397.51 440.968 406.475C440.424 415.44 460.92 418.958 473.406 420.32C483.281 421.398 494.598 421.694 498.9 421.77C499.891 421.787 500.682 422.466 500.678 423.296L500.423 469.873C500.419 470.709 499.606 471.386 498.606 471.386H497.815C496.841 471.386 496.04 470.744 495.998 469.931L493.304 416.64C493.26 415.756 494.124 415.026 495.181 415.057C502.064 415.254 525.161 415.487 533.666 410.107C543.711 403.752 525.89 397.98 515.615 396.831C501.504 395.252 502.719 408.445 504.714 404.408C507.255 399.267 509.796 384.116 508.959 381.312C507.929 377.865 504.837 376.464 499.039 372.803C493.242 369.142 493.758 360.957 494.531 359.664C495.304 358.372 493.253 358.203 492.598 358.157C491.462 358.05 491.585 357.576 492.328 356.201C494.003 353.099 493.705 353.668 494.279 352.522C494.959 351.164 497.537 350.848 498.651 351.566C499.766 352.284 505.325 354.811 506.792 350.573C508.26 346.336 501.162 344.776 499.331 346.189C497.429 347.655 497.292 349.974 497.632 350.202C498.185 350.575 503.786 349.904 503.39 349.198C502.902 348.323 500.703 350.167 498.62 350.564C496.033 351.059 494.961 351.212 495.327 349.676C495.556 348.716 495.799 346.692 494.695 346.069C493.594 345.444 491.166 344.793 488.842 342.309C486.695 340.012 483.038 341.212 481.865 342.578C480.721 343.911 480.184 346.655 481.999 347.742C483.202 348.462 481.367 349.743 483.816 351.038C486.262 352.33 491.981 350.653 491.654 347.328C491.328 344.004 484.994 346.779 485.311 347.108C485.739 347.549 490.479 344.906 492.131 345.36C494.223 345.933 495.732 346.804 496.484 344.613C497.236 342.423 500.076 340.178 501.965 339.687C503.673 339.242 506.508 342.088 509.35 341.457C512.189 340.827 512.405 337.237 512.284 336.308C512.166 335.379 510.426 334.427 510.06 334.3C509.694 334.172 509.306 332.933 507.667 332.382C506.105 331.856 502.333 332.316 500.99 334.629C500.361 335.714 500.058 337.568 502.136 338.321C503.689 338.882 509.69 335.11 509.097 334.791C508.336 334.381 504.557 338.468 502.467 338.994C500.627 339.456 498.461 340.904 497.544 342.057C496.035 343.959 496.297 343.243 496.711 341.274C497.234 338.785 496.734 337.725 494.994 336.264C493.253 334.805 487.921 334.551 486.586 332.148C485.25 329.743 485.968 327.457 488.074 326.737C489.041 326.407 491.006 326.617 491.645 326.457C492.353 326.279 493.867 324.901 496.109 326.884C498.35 328.866 497.588 333.46 495.35 334.075C493.112 334.69 490.215 327.552 491.643 327.798C493.538 328.125 491.312 333.044 494.371 335.11C495.765 336.053 497.139 337.91 497.53 336.931C497.921 335.95 498.653 331.194 500.014 329.22C500.828 328.038 501.902 327.405 503.698 326.325C504.855 325.629 506.984 328.643 510.752 326.418C513.627 324.721 514.536 323.051 513.321 322.204C511.352 320.83 503.374 320.677 503.865 325.598C503.95 326.463 512.743 323.26 511.775 323.01C510.755 322.745 506.01 324.119 501.076 327.36C499.833 328.177 499.629 322.546 500.127 321.714C500.715 320.733 503.733 319.249 505.918 315.605C508.417 311.435 503.214 316.576 504.013 317.917C504.809 319.258 507.341 319.711 508.609 318.453C509.604 317.468 510.613 315.766 509.991 314.684C509.438 313.722 508.079 313.277 507.73 313.091C507.278 312.853 507.186 312.29 505.992 311.988C503.855 311.447 502.418 312.041 501.823 314.1C501.178 316.333 502.897 316.82 502.985 317.819C503.073 318.817 500.19 321.602 499.058 320.669C497.577 319.448 498.132 318.188 494.068 316.449C492.92 315.957 487.039 314.055 487.967 311.658C488.896 309.26 492.27 307.644 493.408 308.453C494.547 309.262 496.095 307.786 497.894 308.48C499.692 309.175 500.456 313.478 498.06 314.848C495.667 316.217 493.746 314.541 493.689 310.346C493.628 306.15 494.931 314.779 494.802 315.721C494.582 317.312 498.377 320.09 499.088 321.942C499.798 323.796 499.363 325.319 499.636 327.182C499.91 329.046 498.551 329.404 498.07 332.49C497.588 335.577 496.385 339.391 496.105 341.535C495.459 346.496 495.885 347.82 492.545 354.414C491.184 357.102 490.84 357.843 487.303 358.265C485.845 358.633 485.5 360.096 491.425 359.558C496.713 359.078 486.53 357.619 486.53 360.527C486.53 362.789 486.401 364.728 485.628 366.988C484.855 369.249 480.967 372.945 476.354 375.497C472.741 377.496 471.191 380.286 470.992 382.15C470.64 385.437 473.262 403.176 474.679 405.544C476.095 407.913 489.576 409.372 495.519 408.747C504.2 407.835 505.425 396.322 491.573 395.695C486.151 395.449 456.527 395.047 446.24 400.916C440.954 403.931 447.321 410.622 457.735 412.166C458.728 412.313 459.376 413.124 459.184 413.952C456.603 425.112 450.977 445.205 449.556 450.244C449.362 450.931 448.631 451.415 447.788 451.415H447.552C446.437 451.415 445.583 450.581 445.756 449.66L450.547 424.334C450.704 423.507 449.938 422.759 448.936 422.76L425.536 422.805C405.237 422.805 402.154 383.173 408.259 384.429C409.96 384.779 411.113 387.262 411.835 390.455C413.362 397.208 412.994 453.456 411.032 454.799C409.069 456.142 380.98 458.751 380.089 458.9C379.198 459.049 380.059 486.008 380.624 486.412C381.188 486.815 384.516 486.84 385.273 486.317C385.88 485.899 386.106 460.763 385.438 460.651C384.125 460.432 280.755 472.395 280.163 472.395C279.633 472.395 280.54 493.852 280.741 498.466C280.762 498.953 281.234 499.342 281.82 499.352C283.248 499.375 285.756 499.59 286.074 499.17C286.728 498.299 287.439 469.211 285.298 469.411C283.157 469.61 259.081 472.244 257.478 472.393C255.871 472.542 254.337 471.506 252.381 470.492C250.872 469.709 251.414 462.702 251.847 461.247C252.303 459.714 253.791 463.133 269.426 461.284C282.472 459.739 397.231 448.613 402.827 446.372C405.621 445.254 406.068 424.235 404.908 419.904C403.938 416.284 402.177 416.793 385.815 412.822C348.14 403.681 350.012 401.715 384.408 409.949C400.96 413.911 397.655 416.922 397.655 397.125C397.655 377.327 417.072 385.826 383.387 381.823C372.794 380.563 353.893 377.233 352.653 377.72C351.794 378.057 353.247 376.422 352.153 399.584C351.912 404.705 348.961 404.112 276.353 410.208C254.534 412.04 252.115 408.501 272.708 407.648C283.921 407.183 346.594 401.804 348.369 400.202C349.887 398.832 349.283 352.156 340.479 347.059C332.897 342.671 291.274 348.402 242.05 348.178C192.826 347.953 190.213 346.837 190.151 360.928C190.061 381.033 183.71 379.731 206.469 384.638C246.239 393.212 248.558 393.957 248.558 401.562C248.558 409.167 247.933 464.041 247.132 469.186C246.329 474.332 237.502 472.764 230.814 471.199C224.126 469.633 224.66 409.018 227.069 401.413C229.476 393.808 246.598 399.623 244.457 397.123C242.316 394.623 191.22 384.189 185.872 383.518C180.521 382.846 174.962 382.523 171.159 386.202C166.644 390.567 168.218 451.066 171.159 453.75C173.909 456.258 215.734 467.578 221.205 469.051C221.557 469.146 221.793 469.418 221.793 469.728V478.798C221.793 479.156 221.441 479.444 221.013 479.434L216.935 479.349C216.238 479.059 216.222 478.538 216.222 478.209V464.134C216.222 462.655 215.113 461.334 213.449 460.831L157.412 443.872C155.848 443.398 154.126 443.452 152.608 444.023L9.61378 497.779C8.97271 498.02 8.23212 497.995 7.6165 497.711L1.26826 494.781C0.90954 494.617 0.687363 494.301 0.687363 493.959V9.82039C0.687363 8.72902 1.43952 7.7344 2.61752 7.26612L18.8735 0.801108C18.9429 0.774017 19.0193 0.758537 19.0956 0.758537H41.6026C42.1627 0.758537 42.3247 1.3971 41.8155 1.58867L18.6443 10.3003C17.4293 10.757 16.6494 11.767 16.6494 12.8816V487.689C16.6494 488.361 17.4687 488.815 18.2092 488.554L21.8196 487.277C22.2339 487.13 22.5047 486.789 22.5047 486.412V14.4394C22.5047 13.4873 23.1781 12.6262 24.2219 12.245L55.5697 0.795303C55.6345 0.772082 55.7062 0.758537 55.778 0.758537H73.2512C73.8067 0.758537 73.9733 1.38936 73.4711 1.5848L35.1873 16.506C34.1782 16.8988 33.5325 17.7464 33.5325 18.6771V481.483C33.5325 482.165 34.3726 482.619 35.1155 482.339L41.3527 479.995C41.7554 479.845 42.0146 479.51 42.0146 479.14V21.9861C42.0146 20.8637 42.8084 19.8478 44.035 19.397L94.5941 0.797238C94.6589 0.772082 94.7307 0.760472 94.8024 0.760472H115.745C116.307 0.760472 116.467 1.40484 115.951 1.59254L55.079 23.687C53.8432 24.1359 53.0424 25.1557 53.0424 26.2819V474.155C53.0424 474.837 53.8825 475.291 54.6254 475.011L60.8626 472.667C61.2653 472.516 61.5245 472.182 61.5245 471.812V29.2812C61.5245 28.1492 62.3322 27.1256 63.5773 26.6805L135.951 0.795303C136.016 0.772082 136.086 0.760472 136.155 0.760472H160.22C160.789 0.760472 160.944 1.41645 160.416 1.59641L74.656 30.9763C73.3855 31.4117 72.5546 32.4469 72.5546 33.5944V466.827C72.5546 467.509 73.3947 467.963 74.1376 467.683L80.3748 465.339C80.7775 465.188 81.0367 464.854 81.0367 464.484V36.5609C81.0367 35.4231 81.8537 34.3955 83.108 33.9524L177.825 0.611473C177.892 0.588252 177.964 0.576642 178.035 0.576642L201.922 0.940432C202.486 0.948172 202.63 1.60028 202.107 1.77637L94.1822 38.2482C92.9023 38.6798 92.0668 39.7189 92.0668 40.8722V459.496C92.0668 460.177 92.907 460.629 93.6499 460.351L99.887 458.009C100.29 457.858 100.549 457.524 100.549 457.154V43.8889C100.549 42.7201 101.408 41.6733 102.711 41.2514L227.595 0.789498C227.655 0.770147 227.717 0.760472 227.782 0.760472H252.756C253.333 0.760472 253.478 1.43 252.939 1.60028L113.764 45.5453C112.447 45.9614 111.574 47.016 111.574 48.1925V452.166C111.574 452.847 112.415 453.299 113.157 453.021L119.395 450.679C119.797 450.528 120.057 450.194 120.057 449.824V51.186C120.057 50.0056 120.931 48.9491 122.255 48.5369L274.814 0.787563C274.872 0.770147 274.935 0.760472 274.997 0.760472H301.955C302.535 0.760472 302.677 1.43581 302.133 1.60222L133.318 52.8289C131.98 53.2352 131.089 54.2976 131.089 55.4876V444.836C131.089 445.517 131.929 445.971 132.672 445.691L138.909 443.347C139.312 443.197 139.571 442.862 139.571 442.492V58.514C139.571 57.3046 140.49 56.2307 141.858 55.8379L334.564 0.599863C334.617 0.584382 334.675 0.576642 334.733 0.576642H367.869C368.459 0.576642 368.591 1.26939 368.031 1.42226L152.936 60.1375C151.545 60.5168 150.604 61.6024 150.604 62.8273V437.508C150.604 438.189 151.444 438.643 152.187 438.363L158.424 436.019C158.826 435.869 159.086 435.534 159.086 435.164V65.844C159.086 64.6056 160.048 63.5123 161.462 63.1427L400.506 0.779823C400.557 0.766277 400.608 0.760472 400.661 0.760472H433.455C434.053 0.760472 434.178 1.46483 433.606 1.60996L172.518 67.4404C171.09 67.8003 170.111 68.9014 170.111 70.1495V377.554C170.111 378.529 171.315 379.179 172.379 378.781L177.644 376.801C178.221 376.584 178.593 376.104 178.593 375.574V73.1604C178.593 71.9007 179.588 70.7919 181.037 70.4436L469.71 0.592122C469.756 0.580512 469.805 0.574707 469.853 0.574707H500.49C501.092 0.574707 501.212 1.28874 500.632 1.42613L192.081 74.7317C190.625 75.0781 189.623 76.1888 189.623 77.4524V340.36C189.623 341.335 190.827 341.986 191.889 341.587L197.154 339.609C197.733 339.393 198.103 338.913 198.103 338.383V80.4633C198.103 79.1881 199.124 78.0697 200.596 77.733L537.802 0.775952C537.846 0.766277 537.892 0.760472 537.939 0.760472H567.095C567.701 0.760472 567.815 1.48031 567.231 1.61383L211.633 82.023C210.156 82.3558 209.133 83.4762 209.133 84.7533V340.368C209.133 341.341 210.332 341.991 211.394 341.597L216.745 339.605C217.321 339.391 217.696 338.913 217.699 338.384L219.386 88.3138C219.395 87.0386 220.423 85.926 221.895 85.597L599.128 1.1707C599.169 1.16103 599.211 1.15716 599.253 1.15522L637.835 0.634694C638.451 0.626953 638.569 1.36034 637.974 1.48805L231.339 89.293C230.316 89.5136 230.108 90.6514 231.008 91.1139C238.146 94.7866 261.41 104.969 292.579 100.369C340.183 93.345 358.445 61.8423 358.445 61.8423V135.396C358.445 135.396 353.055 136.272 353.055 138.025C353.055 139.778 354.032 175.064 353.055 175.463C352.088 175.858 343.985 174.826 343.472 175.838C342.962 176.842 342.409 189.941 343.472 191.239C344.536 192.542 363.694 191.353 365.33 192.054C367.006 192.77 364.567 198.701 359.195 198.701C353.824 198.701 350.625 194.386 352.606 193.973C354.09 193.664 372.982 194.07 374.507 193.217C375.546 192.636 375.109 176.666 374.62 175.84C374.021 174.828 365.215 176.146 364.139 175.298C363.444 174.751 364.139 138.027 364.139 138.027C364.139 138.027 363.039 135.856 358.448 135.398" stroke="white" stroke-width="1.12153" stroke-linecap="round" stroke-linejoin="round"/>
</svg>
